<?xml version="1.0" encoding="UTF-8"?><svg id="Calque_1" xmlns="http://www.w3.org/2000/svg" viewBox="0 0 200 200"><path d="M93.5,98.4c-30.4.6-60.3-16.2-67.5-47.2s-3.4-19.7-1.1-23.8,12.1-3.7,16.6-3.4c30.8,2,58.3,27.3,58.6,58.9l5.8-14.4c11.9-22,36.4-33.3,61.1-31.1,4,.4,7.1,1.4,8.5,5.4,2.2,6.6-1.9,21.2-4.7,27.7-11,25.3-36.1,39.7-63.4,40.1v31.6c17.5,1.5,35.9,7,49.1,18.9s8.2,7.8,3.4,12.8c-6,6.2-12.4-2.7-17.3-6-22-15-56.9-15.9-79.7-2.2-4,2.4-11.9,10.6-15.6,10.5s-7.9-4.8-6.7-9.5,7.5-7.8,9.9-9.5c12.8-9.2,28.1-13.7,43.7-14.9.3-.2-.6-.7-.6-.8v-43ZM86.8,84.6c-1-9.8-3.2-18.7-9-26.8-9-12.6-23.8-18.2-38.8-19.8-.8,26.3,23,45.2,47.7,46.6ZM160.6,51.8c-18.4-.7-36.6,9.2-43.8,26.4-2.4,5.7-3.4,11.9-4.5,18,24.1-1.3,46.4-19.6,48.3-44.4Z"/></svg>