<?xml version="1.0" encoding="UTF-8"?><svg id="Calque_1" xmlns="http://www.w3.org/2000/svg" viewBox="0 0 200 200"><path d="M7.7,161.4c-.7-.7-1.1-1.8-1.5-2.7l-.4-115.1c0-3.8,3.1-7,6.9-6.9l177.3.4c2,.7,3.1,2.1,3.8,4l.3,116.3c0,3-2.8,5.9-5.8,5.8l-178-.3c-.7-.5-2-1-2.6-1.6ZM160.8,50H40.3c-.3,10.9-9.6,20.4-20.5,21.1v57.7c10.9.8,20.1,10.1,20.5,21.1h120.5c.2-11.4,9.6-19.6,20.3-21.6-1-4.4,1.2-8.7-.3-13.1l.3-43.6c-10.7-2.2-20.2-10-20.3-21.6Z"/><path d="M107.5,133.9c1.7,12.6-14.8,12.4-13.4,0-7.2-.4-22.6-11.4-15.5-19.1,6-6.5,10.7,2.4,14.5,4.8,4.7,3,16,3.1,17.9-3.1,2.9-9.2-14.1-9.6-19.8-11.7-21.5-7.9-17.9-33,2.9-38.2-1.2-12.2,14.4-11.9,13.7,0,6,1.9,17.2,8.7,14.6,16.2s-3,4-5.2,4.3c-4.9.6-6.6-4.3-10.1-6.4s-12.1-2.7-15.3,2c-6.8,10.2,13.2,11.4,18.7,13.4,21.5,7.9,17.9,32.9-2.9,37.7Z"/></svg>