<?xml version="1.0" encoding="UTF-8"?><svg id="Calque_1" xmlns="http://www.w3.org/2000/svg" viewBox="0 0 200 200"><path d="M164.9,124c12.5,1.7,23.2,11.6,25.7,24,3.7,18.2-9.5,34.6-27.8,36.1H36.9c-35.6-6.1-38.1-55.6-3.4-65.5,1.3-39.4,51.7-53.7,72.7-20,22-17.3,55.2-1.5,58.7,25.4ZM144,112.1c-8.1-7.9-21.3-9.5-30.3-2.1-4.3,3.5-7,11.5-13.8,6.6-2.9-2-2.6-4.8-4-7.7-13-26.5-48.7-16.8-48.2,12.7,0,2.9,1.6,4.9-1.1,7.8s-5.1,1.5-7.9,2.1c-21.7,4.2-21.5,35.3.4,38.7h123.3c19.5-2.7,20.2-28.3.9-32.6-4.4-1-10.6,0-11.7-6.1-1.5-8.1-.9-13-7.5-19.4Z"/><path d="M96.5,41.4c-4.1,2.6-10.1,12-14.7,12.7-7.5,1.2-11.5-6.1-7.2-12.2,8.1-6.3,15.6-18.5,23.6-24.1,3-2.1,7.1-2.4,10.4-.9s16.6,15.4,19.9,19,6.6,7,6.8,8.2c1.2,5.4-2.1,10.6-7.9,10.2s-11.6-10.5-15.6-13.4c-1.7-.1-.3.6-.3.8v28.9c0,4-3.7,7.3-7.6,7.3s-7.4-3.2-7.4-6.2v-30.2Z"/></svg>