<?xml version="1.0" encoding="UTF-8"?>
<svg id="Calque_1" data-name="Calque 1" xmlns="http://www.w3.org/2000/svg" viewBox="0 0 300 300">
  <defs>
    <style>
      .cls-1 {
        fill: #fff;
      }
    </style>
  </defs>
  <path d="M76.78,275l36.01-54.52c-11.96-3.8-21.72-11.82-23.51-24.88l.14-125.56c4.2-15.32,16.25-23.43,31.73-24.5,20.52-1.42,61.05-2.14,80.9.17,15.02,1.75,27.45,13.21,28.84,28.51,3.48,38.1-2.6,81.59-.17,120.25-1.81,12.61-11.64,22.39-23.51,26.01l36.01,54.52h-20.8l-27.2-38.02h-70.42s-27.2,38.02-27.2,38.02h-20.8ZM142.8,52.56c-4.79,1.41-3.47,14.72-1.98,18.4,1.41.98,33.11,1.91,36.29.15s2.58-16.8.63-17.95c-2.45-1.46-31.9-1.49-34.93-.6ZM120.37,77.37c-5.75.44-13.36,5.71-14.29,11.58-.84,5.28-.75,24.79.2,30.03,1.32,7.31,8.07,10.39,14.87,11,25.07,2.21,53.34-1.74,78.77-.04,5.32-.53,11.46-3.98,13.19-9.3,1.47-4.52,1.59-25.38.79-30.55-1.39-9.01-10.43-12.36-18.44-13.04-23.87-2.05-50.9,1.36-75.09.33ZM115.81,176.28c-17.89,4.09-9.79,35.12,10.33,26.06,15.52-6.99,6.58-29.92-10.33-26.06ZM195.68,176.3c-16.59,3.39-11.94,29.15,5.04,27.62,19.12-1.72,16.15-31.95-5.04-27.62Z"/>
  <path d="M141.22,39.64c-8.6-10.69,10.08-21.02,14.81-9.77,4.38,10.4-9.32,16.59-14.81,9.77Z"/>
  <path d="M168.67,25.59c12.73-3.49,15.33,13.16,6,16.12-12.89,4.1-15.36-13.56-6-16.12Z"/>
  <path class="cls-1" d="M120.37,77.37c24.19,1.03,51.23-2.38,75.09-.33,8.01.69,17.05,4.04,18.44,13.04.8,5.17.68,26.02-.79,30.55-1.73,5.32-7.87,8.77-13.19,9.3-25.42-1.7-53.7,2.26-78.77.04-6.8-.6-13.55-3.69-14.87-11-.95-5.24-1.04-24.75-.2-30.03.93-5.87,8.53-11.13,14.29-11.58Z"/>
  <path class="cls-1" d="M195.68,176.3c21.2-4.33,24.16,25.9,5.04,27.62-16.99,1.53-21.63-24.23-5.04-27.62Z"/>
  <path class="cls-1" d="M115.81,176.28c16.91-3.86,25.85,19.08,10.33,26.06-20.12,9.05-28.22-21.98-10.33-26.06Z"/>
</svg>