<?xml version="1.0" encoding="UTF-8"?>
<svg id="Calque_1" data-name="Calque 1" xmlns="http://www.w3.org/2000/svg" viewBox="0 0 300 300">
  <defs>
    <style>
      .cls-1 {
        fill: #fff;
      }
    </style>
  </defs>
  <path class="cls-1" d="M300,0v300H0V0h300ZM81.67,33.1c-11.03,1.25-19.76,10.84-21.65,21.49-8.96-1.13-17.74.73-25.03,6.08-2.38,1.74-5.95,4.21-3.12,7.42.97,1.11,2.01,1.5,3.49,1.21,1.37-.27,6.02-4.2,8.28-5.23,3.94-1.8,8.84-2.87,13.18-2.56,2.79.2,7.35,2.41,9.36-.02,1.41-1.7.72-3.42,1.06-5.32,2.93-16.3,20.94-21.64,31.77-8.73,1.06,1.27,1.39,3.25,3.16,3.96,2.26.9,5.06-.59,7.51-.79,23.09-1.83,38.47,18.62,34.21,40.59-.53,2.76-2.77,5.61.3,7.8,5.51,3.93,7.4-7.28,7.68-10.69,2.22-27.03-18.87-49.02-46.22-44.49-6.03-7.61-14.04-11.84-23.98-10.72ZM110.12,89.87c-2.11,2.11-10.03,4.24-6.25,8.58,3.36,3.85,10.65-2.23,12.92-5.1,8.35-10.59,3.24-27.19-9.91-30.53-2.7-.69-5.77-.1-7.61-.64-.42-.13-2.56-2.17-3.63-2.74-8.54-4.57-19.34,1.15-19.52,10.9-.06,3.38,3.76,5.69,6.41,3,2.01-2.04.02-5.44,4.08-7.55,5.93-3.08,6.83,2.99,9.38,3.79,2.11.66,4.78-.43,7.24-.11,9.68,1.27,13.84,13.46,6.9,20.39ZM50.17,77.92c-.52.31-3.18,0-4.2.12-5.53.69-11.27,5.01-13.54,10.09-1.61,3.61-3.52,12.74,3.29,11.16,3.27-.76,2.22-5.08,3.2-7.68,1.27-3.39,5.35-6.23,8.94-6.46,1.79-.11,3.27.72,5.03.17,1.5-.47,2.18-2.49,3.38-3.37,2.18-1.62,5.32-1.39,6.93.9,1.33,1.88.52,4.27,2.77,5.48,2.39,1.28,3.89-.26,6.16-.18,2.55.09,5.53,1.85,6.93,3.97,1.73,2.63.96,8.47,5.78,7.54s2.43-8.2.73-11.06c-3.15-5.29-9.04-7.83-15.08-7.8-4.08-8.09-12.66-9.52-19.69-3.94-.35.28-.46.94-.63,1.04ZM128.25,239.25v-8.06c0-3.08-3.25-9.19-5.26-11.61-10.49-12.62-28.15-7.45-42.47-8.36-4.06,1.01-3.95,6.38.08,7.25,8.9,1.49,24.07-2.14,31.91,1.83,3.99,2.02,8.61,8.2,8.61,12.76v6.19h-7.12c1-6.4-2.69-13.28-9.55-13.89-5.64-.51-16.9-.51-22.53,0-4.84.44-4.84,6.72,0,7.16,7.02.64,14.88-.65,21.98.14,3.1.89,3.16,3.83,2.97,6.59h-20.44c-.7,0-2.81,2.41-2.81,3.19v17.44h-9.38l-4.14-65.79,18.39-18.21v21.19c0,3.02,3.13,6.57,6.18,6.95,4.23.53,5.93-1.39,8.83-3.94,7.51-6.62,14.49-14.81,21.92-21.58,1.01-.91,2.19-1.69,3.2-2.62v22.69c0,1.33,2.86,4.31,4.12,4.88,2.05.92,4.87.83,6.87-.26l28.76-27.31v22.31c0,.25,1.07,2.4,1.34,2.79,2.38,3.47,6.96,4.01,10.41,1.84l28-26.94v21.56c0,1.72,1.64,4.21,2.99,5.26,4.46,3.46,10.66,1.12,11.84-4.3l.17-40.71c-.86-6.37-7.46-9.06-12.5-5l-27.25,26.19v-21.19c0-2.06-2.1-4.86-3.86-5.89-2.45-1.44-4.86-1.35-7.35-.07-2.03,1.04-7.89,7.14-9.99,9.14-5.45,5.21-12.06,13.05-17.8,17.45-.38.29-.47.72-1.13.56v-22.69c0-1.3-2.89-4.2-4.24-4.76-5.65-2.35-9.11,2.23-12.83,5.69-6.7,6.22-14.64,15.91-21.55,21.2-.38.29-.47.72-1.13.56v-21.94c0-1.55-2.5-4.66-4-5.38-7.25-3.46-13.92,6.74-18.68,11.2-1.47,1.38-3.24,2.67-4.69,4.12l-1.15-18.9c4.04-.99,6.42-3.7,6.79-7.9.47-5.44.56-17.15-.05-22.47-.41-3.52-2.57-6.31-6.14-6.99-12.23,1.03-26.67-1.35-38.63,0-3.2.36-5.83,3.42-6.19,6.56-.85,7.54.61,16.63.03,24.34.64,3.28,3.1,5.52,6.29,6.27.4,2.56-.2,5.2-.32,7.64-1.67,33.28-4.2,66.46-5.63,99.74-.03.63-.35,1.26-.37,1.88-.13,5.19.86,8.85,6.56,9.93l95.92-.08c1.21-.4,2.29-1.46,2.5-2.75-.69-6.73,1.01-15.61,0-22.08-.52-3.31-4.97-2.92-7.48-2.83ZM195.19,259.87h-32.44c2.07-5.58,7.25-10.84,9.45-16.24,1.89-4.65,2.32-10.51,4.27-15.23l16.07-11.98,22.89,2.98,8.97-2.22,7.92,12.32-10.61,5.93c-2.66.51-9.49-2.62-12.62-2.52-1.2.04-11.8,3.5-13.07,4.18-2.26,1.21-4.87,8.87-4.32,11.27.51,2.24,3.21,3.02,5.14,1.92,2.5-1.43,2.38-5.7,3.49-6.82.32-.32,7.8-2.83,8.53-2.94,3.76-.53,10.62,3.34,14.74,2.39,4.44-1.83,9.59-6.28,13.87-7.89,1.52-.57,3.77.41,5.33.83l5.6,17.65c4.75,3.51,9.83,9.65,14.7,12.67,4.1,2.54,7.72-.83,5.38-5l-14.04-12.21-5.67-18.33c-1.7-2.46-6.54-1.87-9-3.38l-11.29-17.21c-.48-.23-1.02-.63-1.54-.73-2.9-.54-8.91,2.67-12.67,2.57-7.34-.2-15.75-2.64-23.22-3.04l-2.73,1.05-18.27,13.98c-2.15,5.12-2.6,11.71-4.62,16.75-2.63,6.55-9.41,13.93-12.52,20.48-1.08,2.28-.96,4.18,1.29,5.59h41.06c3.24-1.3,2.43-6.27-.09-6.84Z"/>
  <path d="M128.25,239.25c2.51-.08,6.96-.48,7.48,2.83,1.01,6.47-.69,15.35,0,22.08-.2,1.29-1.29,2.36-2.5,2.75l-95.92.08c-5.7-1.09-6.69-4.74-6.56-9.93.02-.63.34-1.25.37-1.88,1.43-33.29,3.96-66.46,5.63-99.74.12-2.45.72-5.08.32-7.64-3.19-.75-5.65-2.99-6.29-6.27.57-7.71-.88-16.8-.03-24.34.35-3.15,2.99-6.2,6.19-6.56,11.96-1.36,26.41,1.03,38.63,0,3.57.68,5.73,3.46,6.14,6.99.62,5.32.52,17.04.05,22.47-.36,4.21-2.74,6.91-6.79,7.9l1.15,18.9c1.45-1.44,3.22-2.74,4.69-4.12,4.76-4.46,11.43-14.66,18.68-11.2,1.5.72,4,3.83,4,5.38v21.94c.65.16.75-.27,1.13-.56,6.91-5.29,14.85-14.98,21.55-21.2,3.73-3.46,7.19-8.04,12.83-5.69,1.35.56,4.24,3.47,4.24,4.76v22.69c.65.16.75-.27,1.13-.56,5.74-4.4,12.35-12.24,17.8-17.45,2.1-2,7.96-8.1,9.99-9.14,2.5-1.28,4.9-1.36,7.35.07,1.76,1.03,3.86,3.83,3.86,5.89v21.19l27.25-26.19c5.04-4.07,11.64-1.38,12.5,5l-.17,40.71c-1.18,5.43-7.38,7.76-11.84,4.3-1.36-1.05-2.99-3.54-2.99-5.26v-21.56l-28,26.94c-3.45,2.18-8.04,1.63-10.41-1.84-.27-.39-1.34-2.54-1.34-2.79v-22.31l-28.76,27.31c-2,1.09-4.82,1.18-6.87.26-1.26-.56-4.12-3.55-4.12-4.88v-22.69c-1,.93-2.19,1.7-3.2,2.62-7.43,6.76-14.42,14.96-21.92,21.58-2.9,2.55-4.59,4.47-8.83,3.94-3.05-.38-6.18-3.93-6.18-6.95v-21.19l-18.39,18.21,4.14,65.79h9.38v-17.44c0-.78,2.11-3.19,2.81-3.19h20.44c.18-2.76.12-5.7-2.97-6.59-7.11-.79-14.96.5-21.98-.14-4.84-.44-4.84-6.72,0-7.16,5.63-.51,16.9-.5,22.53,0,6.85.61,10.55,7.49,9.55,13.89h7.12v-6.19c0-4.57-4.62-10.74-8.61-12.76-7.84-3.98-23.02-.34-31.91-1.83-4.02-.87-4.14-6.25-.08-7.25,14.31.91,31.97-4.25,42.47,8.36,2.01,2.42,5.26,8.54,5.26,11.61v8.06ZM66.75,125.25h-21v7.88h21v-7.88ZM59.62,140.25h-6.56l-7.31,119.62h21l-7.12-119.62ZM128.62,246.75h-37.5v13.12h36.94l.56-.56v-12.56Z"/>
  <path d="M195.19,259.87c2.52.57,3.33,5.54.09,6.84h-41.06c-2.25-1.42-2.37-3.31-1.29-5.6,3.11-6.55,9.88-13.93,12.52-20.48,2.03-5.04,2.47-11.63,4.62-16.75l18.27-13.98,2.73-1.05c7.47.39,15.88,2.84,23.22,3.04,3.76.1,9.77-3.11,12.67-2.57.52.1,1.06.49,1.54.73l11.29,17.21c2.45,1.51,7.3.92,9,3.38l5.67,18.33,14.04,12.21c2.34,4.17-1.28,7.54-5.38,5-4.87-3.02-9.95-9.17-14.7-12.67l-5.6-17.65c-1.57-.42-3.81-1.4-5.33-.83-4.29,1.61-9.44,6.06-13.87,7.89-4.12.95-10.98-2.92-14.74-2.39-.73.1-8.21,2.62-8.53,2.94-1.12,1.11-.99,5.39-3.49,6.82-1.93,1.11-4.63.32-5.14-1.92-.55-2.4,2.06-10.06,4.32-11.27,1.27-.68,11.88-4.14,13.07-4.18,3.13-.1,9.96,3.03,12.62,2.52l10.61-5.93-7.92-12.32-8.97,2.22-22.89-2.98-16.07,11.98c-1.96,4.72-2.38,10.58-4.27,15.23-2.19,5.4-7.37,10.66-9.45,16.24h32.44Z"/>
  <path d="M81.67,33.1c9.95-1.13,17.95,3.11,23.98,10.72,27.35-4.53,48.44,17.46,46.22,44.49-.28,3.41-2.17,14.62-7.68,10.69-3.07-2.19-.83-5.04-.3-7.8,4.26-21.97-11.13-42.42-34.21-40.59-2.46.19-5.26,1.69-7.51.79-1.77-.71-2.1-2.7-3.16-3.96-10.83-12.91-28.85-7.57-31.77,8.73-.34,1.89.35,3.62-1.06,5.32-2.01,2.43-6.58.22-9.36.02-4.34-.31-9.24.75-13.18,2.56-2.26,1.04-6.91,4.97-8.28,5.23-1.48.29-2.52-.11-3.49-1.21-2.82-3.21.74-5.67,3.12-7.42,7.29-5.34,16.07-7.21,25.03-6.08,1.89-10.65,10.62-20.24,21.65-21.49Z"/>
  <path d="M110.12,89.87c6.94-6.94,2.78-19.13-6.9-20.39-2.46-.32-5.13.77-7.24.11-2.55-.8-3.44-6.87-9.38-3.79-4.06,2.11-2.07,5.5-4.08,7.55-2.65,2.69-6.47.38-6.41-3,.18-9.76,10.98-15.47,19.52-10.9,1.07.57,3.21,2.62,3.63,2.74,1.84.54,4.91-.04,7.61.64,13.15,3.34,18.26,19.94,9.91,30.53-2.27,2.88-9.56,8.96-12.92,5.1-3.78-4.34,4.14-6.47,6.25-8.58Z"/>
  <path d="M50.17,77.92c.17-.1.28-.76.63-1.04,7.03-5.58,15.61-4.15,19.69,3.94,6.04-.03,11.92,2.51,15.08,7.8,1.7,2.85,4.18,10.11-.73,11.06s-4.05-4.92-5.78-7.54c-1.4-2.12-4.38-3.89-6.93-3.97-2.26-.08-3.77,1.46-6.16.18-2.25-1.21-1.45-3.59-2.77-5.48-1.61-2.29-4.75-2.52-6.93-.9-1.19.88-1.88,2.9-3.38,3.37-1.75.55-3.24-.28-5.03-.17-3.59.23-7.67,3.07-8.94,6.46-.98,2.6.08,6.92-3.2,7.68-6.81,1.57-4.91-7.55-3.29-11.16,2.27-5.08,8-9.4,13.54-10.09,1.02-.13,3.68.19,4.2-.12Z"/>
  <polygon class="cls-1" points="59.62 140.25 66.75 259.87 45.75 259.87 53.06 140.25 59.62 140.25"/>
  <polygon class="cls-1" points="128.62 246.75 128.62 259.31 128.06 259.87 91.12 259.87 91.12 246.75 128.62 246.75"/>
  <rect class="cls-1" x="45.75" y="125.25" width="21" height="7.88"/>
</svg>