<?xml version="1.0" encoding="UTF-8"?>
<svg id="Calque_1" data-name="Calque 1" xmlns="http://www.w3.org/2000/svg" viewBox="0 0 300 300">
  <defs>
    <style>
      .cls-1 {
        fill: #fff;
      }

      .cls-2 {
        fill: none;
        stroke: #000;
        stroke-miterlimit: 10;
        stroke-width: 3px;
      }
    </style>
  </defs>
  <path class="cls-2" d="M10,236.95c3.5-8.86,10-16.01,16.67-22.58,21.69-21.35,46.79-38.88,73.94-51.66"/>
  <path class="cls-2" d="M34.43,237c3.5-8.86,10-16.01,16.67-22.58,21.69-21.35,46.79-38.88,73.94-51.66"/>
  <path class="cls-2" d="M83.11,239.97c3.5-8.86,10-16.01,16.67-22.58,21.69-21.35,46.79-38.88,73.94-51.66"/>
  <path class="cls-2" d="M108.76,236.95c3.5-8.86,10-16.01,16.67-22.58,21.69-21.35,46.79-38.88,73.94-51.66"/>
  <path class="cls-2" d="M176.56,233.41c3.5-8.86,10-16.01,16.67-22.58,21.69-21.35,46.79-38.88,73.94-51.66"/>
  <path class="cls-2" d="M199.38,243.65c3.5-8.86,10-16.01,16.67-22.58,21.69-21.35,46.79-38.88,73.94-51.66"/>
  <g>
    <path d="M86.71,199.88c-1.42-1.32-2.27-2.93-2.27-4.91,0-7.95,4.11-21.3,3.35-28.62-.15-1.42-3.78-9.57-5.4-9.41-7.15,4.47-17.3,2.72-22.15-4.15-1.21-1.72-2.49-6.27-2.88-6.55-1.05-.78-6.76-.89-8.79-1.51-18.11-5.61-18.96-31.99-1.77-38.58,3.16-1.21,10.11-.86,11.27-3.15.49-.96-4.1-8.43-4.1-12.11,0-7.11,5.92-14.67,13.08-15.62,5.23-.69,8.33,1.19,12.98,1.34,2.05-17.53,22.4-27.24,35.74-14.34,4.96,4.79,3.77,8.23,6.17,12.67,2.15,3.99,6,.34,10.33,1.32,3.1.7,5.04,4.72,6.6,5.03,1.21.24,3.61-1.36,5.34-1.56,12.12-1.35,20.01,10.89,13.14,21.23-1.67,2.52-6.11,4.56-5.51,6.82.33,1.26,8.37,5.14,10.67,8.22,11.91,15.91-3.7,38.06-22.74,32.82-1.57.54-2.75,8.31-8.4,9.6s-7.29-1.6-11.48-4.13c-2.06.16-3.93,9.01-4.06,11.01-.62,9.39,4.1,21.96,3.59,30.49-.1,1.6-1.09,3-2.21,4.08h-30.5ZM90.3,196.29h24.67l-7.18-56.89,20.62-31.03-23.31,16.15-3.15-18.85-5.84,34.99-23.31-16.14,20.44,30.25c.39,12.87-3.97,27.09-3.93,39.69,0,1.05.06,1.16.98,1.83Z"/>
    <path class="cls-1" d="M90.3,196.29c-.92-.67-.97-.78-.98-1.83-.04-12.6,4.33-26.82,3.93-39.69l-20.44-30.25,23.31,16.14,5.84-34.99,3.15,18.85,23.31-16.15-20.62,31.03,7.18,56.89h-24.67Z"/>
  </g>
  <g>
    <path d="M177.72,199.88c-1.42-1.32-2.27-2.93-2.27-4.91,0-7.95,4.11-21.3,3.35-28.62-.15-1.42-3.78-9.57-5.4-9.41-7.15,4.47-17.3,2.72-22.15-4.15-1.21-1.72-2.49-6.27-2.88-6.55-1.05-.78-6.76-.89-8.79-1.51-18.11-5.61-18.96-31.99-1.77-38.58,3.16-1.21,10.11-.86,11.27-3.15.49-.96-4.1-8.43-4.1-12.11,0-7.11,5.92-14.67,13.08-15.62,5.23-.69,8.33,1.19,12.98,1.34,2.05-17.53,22.4-27.24,35.74-14.34,4.96,4.79,3.77,8.23,6.17,12.67,2.15,3.99,6,.34,10.33,1.32,3.1.7,5.04,4.72,6.6,5.03,1.21.24,3.61-1.36,5.34-1.56,12.12-1.35,20.01,10.89,13.14,21.23-1.67,2.52-6.11,4.56-5.51,6.82.33,1.26,8.37,5.14,10.67,8.22,11.91,15.91-3.7,38.06-22.74,32.82-1.57.54-2.75,8.31-8.4,9.6s-7.29-1.6-11.48-4.13c-2.06.16-3.93,9.01-4.06,11.01-.62,9.39,4.1,21.96,3.59,30.49-.1,1.6-1.09,3-2.21,4.08h-30.5ZM181.31,196.29h24.67l-7.18-56.89,20.62-31.03-23.31,16.15-3.15-18.85-5.84,34.99-23.31-16.14,20.44,30.25c.39,12.87-3.97,27.09-3.93,39.69,0,1.05.06,1.16.98,1.83Z"/>
    <path class="cls-1" d="M181.31,196.29c-.92-.67-.97-.78-.98-1.83-.04-12.6,4.33-26.82,3.93-39.69l-20.44-30.25,23.31,16.14,5.84-34.99,3.15,18.85,23.31-16.15-20.62,31.03,7.18,56.89h-24.67Z"/>
  </g>
</svg>