<?xml version="1.0" encoding="UTF-8"?>
<svg id="Calque_1" data-name="Calque 1" xmlns="http://www.w3.org/2000/svg" viewBox="0 0 300 300">
  <defs>
    <style>
      .cls-1 {
        fill: #fff;
      }
    </style>
  </defs>
  <path d="M91.08,59.28l126.05,12.33c16,14.57,30.16,31.58,45.18,47.31.37,11.04.4,22.12.29,33.17-.16,16.18.82,37.16-.59,52.73-.11,1.19-.08,2.2-.92,3.18l-113.42,32.86c-33.85-9.28-70.14-13.86-103.82-23.17-2.23-.62-4.71-.66-5.58-3.2v-92.64s50.95-61.44,50.95-61.44l1.85-1.12ZM189.47,120.7l-40.95-47.73-46.77-4.99,47.37,54.77c13.37-.03,26.89-1.59,40.34-2.05ZM112.28,92.57l-20.18-23.42-18.42,21.96,38.59,1.46ZM181.7,76.35l-22.05-2.23,39.3,45.87,18.59-1.05-35.84-42.59ZM249.71,117.18l-35.1-37.77-21.62-2.06,34.52,40.7,22.21-.87ZM138.59,123.04c.26-1.01-.42-1.17-.87-1.76-5.44-7.09-12.78-13.77-18.44-20.79l-51.62-1.36-17.37,20.1,88.3,3.8ZM239.77,125.39v18.16l14.59-1.79c-.27-5.69.99-11.28.62-16.97l-15.21.59ZM231.58,125.98l-54.97,2.93v21.68l54.97-6.74v-17.87ZM64.33,127.73c-3.99-.12-8.02.15-12.01.02-2.19-.07-4.92-1.67-6.7.27v23.14l18.71,2.34v-25.78ZM143.86,130.66l-71.93-2.34v87.89l71.93,15.82v-101.37ZM168.42,129.49l-16.96,1.17v22.27l16.96-1.76v-21.68ZM239.77,206.25c4.85-1.07,10.22-2.05,14.62-4.39v-52.44l-14.62,1.76v55.08ZM231.58,152.34l-54.97,5.86v66.21l15.79-4.11c-10.02-7.39-11.44-15.46-6.53-26.75,6.45-14.84,11.75-6.86,20.27.97,2.81-2.27,8.58-11.96,11.75-12.29s3.88,1.9,5.22,4.09c4.71,7.7,5.28,15.49,2.62,24.03l5.85-1.17v-56.84ZM151.46,231.45l16.96-4.98v-67.68c-4.86,1.41-10.64.91-15.5,1.76-.66.11-1.09.3-1.46.88v70.02ZM64.33,161.13l-18.71-1.76v24.9c5.63,2.8,12.64,2.69,18.71,4.39v-27.54ZM64.33,196.29c-5.38.23-12.52-3.23-17.51-3.28-.7,0-.77.06-1.2.65v15.82l18.71,4.98v-18.16ZM215.21,210.93c1.72,1.87,4.59-8.67,4.63-9.75.1-2.81-1.42-5.66-1.72-8.41l-6.84,7.9c1.39,3.36,3.94,6.44,3.93,10.26ZM208.19,215.62c-.27-8.75-6.88-16.39-13.73-21.1-9.17,12.47.21,22.03,13.73,21.1Z"/>
  <path class="cls-1" d="M143.86,130.66v101.37l-71.93-15.82v-87.89l71.93,2.34ZM108.18,161.72c-7.96-9.55-27.19-19.27-22.04,3.05,1.92,8.3,8.61,14.33,16.66,16.71,11.94,3.53,25.8-7.26,27.02-19.47.82-8.18.31-12.43-8.78-9.97-5.05,1.37-10.5,5.03-12.86,9.68ZM107.03,198.63c-1.6-5.32-13.39-11.29-18.29-10.45-5.96,1.02-2.78,14.44-.95,18.29,2.94,6.18,12.31,12.61,19.1,13.14,4.5.35,13.3-4,16.52-7.18,4.66-4.61,8.13-15.08,6.15-21.44-1.87-5.98-13.33-.42-16.65,2.13-1.95,1.5-2.95,3.37-4.47,4.89-.48.48-.52.84-1.41.62Z"/>
  <path class="cls-1" d="M231.58,152.34v56.84l-5.85,1.17c2.65-8.54,2.08-16.33-2.62-24.03-1.34-2.19-2.12-4.4-5.22-4.09s-8.94,10.02-11.75,12.29c-8.52-7.83-13.82-15.8-20.27-.97-4.91,11.29-3.49,19.36,6.53,26.75l-15.79,4.11v-66.21l54.97-5.86Z"/>
  <path class="cls-1" d="M189.47,120.7c-13.45.46-26.97,2.02-40.34,2.05l-47.37-54.77,46.77,4.99,40.95,47.73Z"/>
  <path class="cls-1" d="M138.59,123.04l-88.3-3.8,17.37-20.1,51.62,1.36c5.65,7.02,13,13.7,18.44,20.79.45.59,1.13.74.87,1.76Z"/>
  <path class="cls-1" d="M151.46,231.45v-70.02c.37-.58.8-.76,1.46-.88,4.86-.85,10.64-.35,15.5-1.76v67.68l-16.96,4.98Z"/>
  <polygon class="cls-1" points="231.58 125.98 231.58 143.85 176.61 150.59 176.61 128.91 231.58 125.98"/>
  <polygon class="cls-1" points="181.7 76.35 217.54 118.94 198.95 119.99 159.65 74.12 181.7 76.35"/>
  <polygon class="cls-1" points="249.71 117.18 227.5 118.05 192.98 77.35 214.6 79.41 249.71 117.18"/>
  <path class="cls-1" d="M239.77,206.25v-55.08l14.62-1.76v52.44c-4.4,2.34-9.77,3.33-14.62,4.39Z"/>
  <path class="cls-1" d="M64.33,161.13v27.54c-6.07-1.71-13.08-1.6-18.71-4.39v-24.9l18.71,1.76Z"/>
  <path class="cls-1" d="M64.33,127.73v25.78l-18.71-2.34v-23.14c1.78-1.94,4.51-.34,6.7-.27,3.99.13,8.02-.14,12.01-.02Z"/>
  <polygon class="cls-1" points="112.28 92.57 73.69 91.12 92.1 69.15 112.28 92.57"/>
  <polygon class="cls-1" points="168.42 129.49 168.42 151.17 151.46 152.93 151.46 130.66 168.42 129.49"/>
  <path class="cls-1" d="M64.33,196.29v18.16l-18.71-4.98v-15.82c.44-.58.51-.66,1.2-.65,5,.05,12.13,3.51,17.51,3.28Z"/>
  <path class="cls-1" d="M239.77,125.39l15.21-.59c.37,5.69-.89,11.27-.62,16.97l-14.59,1.79v-18.16Z"/>
  <path class="cls-1" d="M208.19,215.62c-13.53.94-22.9-8.63-13.73-21.1,6.85,4.7,13.46,12.35,13.73,21.1Z"/>
  <path class="cls-1" d="M215.21,210.93c.01-3.82-2.54-6.89-3.93-10.26l6.84-7.9c.3,2.75,1.82,5.6,1.72,8.41-.04,1.08-2.91,11.62-4.63,9.75Z"/>
  <path d="M108.18,161.72c2.37-4.65,7.81-8.31,12.86-9.68,9.09-2.46,9.6,1.79,8.78,9.97-1.23,12.21-15.08,22.99-27.02,19.47-8.05-2.38-14.74-8.4-16.66-16.71-5.15-22.32,14.08-12.59,22.04-3.05ZM103.5,173.44c-.53-6.25-4.22-11.96-10.52-13.47.81,6.4,4.55,11.17,10.52,13.47ZM122.22,159.96c-5.91,1.47-10.27,7.38-9.93,13.47,5.76-2.27,9.59-7.18,9.93-13.47Z"/>
  <path d="M107.03,198.63c.89.22.93-.14,1.41-.62,1.52-1.52,2.52-3.39,4.47-4.89,3.32-2.55,14.78-8.12,16.65-2.13,1.99,6.36-1.49,16.83-6.15,21.44-3.22,3.18-12.03,7.53-16.52,7.18-6.79-.53-16.16-6.96-19.1-13.14-1.83-3.85-5.01-17.27.95-18.29,4.9-.84,16.7,5.13,18.29,10.45ZM103.51,210.35c-.7-6.15-4.24-11.9-10.52-13.47.74,6.27,4.37,11.59,10.52,13.47ZM112.29,210.35c5.56-2.16,9.85-7.32,9.93-13.48-5.68,2-10.34,7.08-9.93,13.48Z"/>
  <path class="cls-1" d="M122.22,159.96c-.35,6.3-4.17,11.2-9.93,13.47-.33-6.09,4.03-12.01,9.93-13.47Z"/>
  <path class="cls-1" d="M103.5,173.44c-5.97-2.31-9.7-7.08-10.52-13.47,6.3,1.51,9.99,7.22,10.52,13.47Z"/>
  <path class="cls-1" d="M103.51,210.35c-6.15-1.88-9.78-7.2-10.52-13.47,6.28,1.57,9.82,7.32,10.52,13.47Z"/>
  <path class="cls-1" d="M112.29,210.35c-.42-6.39,4.25-11.48,9.93-13.48-.08,6.16-4.37,11.31-9.93,13.48Z"/>
</svg>