<?xml version="1.0" encoding="UTF-8"?>
<svg id="Calque_1" data-name="Calque 1" xmlns="http://www.w3.org/2000/svg" viewBox="0 0 300 300">
  <path d="M128.25,239.25c2.51-.08,6.96-.48,7.48,2.83,1.01,6.47-.69,15.35,0,22.08-.2,1.29-1.29,2.36-2.5,2.75l-95.92.08c-5.7-1.09-6.69-4.74-6.56-9.93.02-.63.34-1.25.37-1.88,1.43-33.29,3.96-66.46,5.63-99.74.12-2.45.72-5.08.32-7.64-3.19-.75-5.65-2.99-6.29-6.27.57-7.71-.88-16.8-.03-24.34.35-3.15,2.99-6.2,6.19-6.56,11.96-1.36,26.41,1.03,38.63,0,3.57.68,5.73,3.46,6.14,6.99.62,5.32.52,17.04.05,22.47-.36,4.21-2.74,6.91-6.79,7.9l1.15,18.9c1.45-1.44,3.22-2.74,4.69-4.12,4.76-4.46,11.43-14.66,18.68-11.2,1.5.72,4,3.83,4,5.38v21.94c.65.16.75-.27,1.13-.56,6.91-5.29,14.85-14.98,21.55-21.2,3.73-3.46,7.19-8.04,12.83-5.69,1.35.56,4.24,3.47,4.24,4.76v22.69c.65.16.75-.27,1.13-.56,5.74-4.4,12.35-12.24,17.8-17.45,2.1-2,7.96-8.1,9.99-9.14,2.5-1.28,4.9-1.36,7.35.07,1.76,1.03,3.86,3.83,3.86,5.89v21.19l27.25-26.19c5.04-4.07,11.64-1.38,12.5,5l-.17,40.71c-1.18,5.43-7.38,7.76-11.84,4.3-1.36-1.05-2.99-3.54-2.99-5.26v-21.56l-28,26.94c-3.45,2.18-8.04,1.63-10.41-1.84-.27-.39-1.34-2.54-1.34-2.79v-22.31l-28.76,27.31c-2,1.09-4.82,1.18-6.87.26-1.26-.56-4.12-3.55-4.12-4.88v-22.69c-1,.93-2.19,1.7-3.2,2.62-7.43,6.76-14.42,14.96-21.92,21.58-2.9,2.55-4.59,4.47-8.83,3.94-3.05-.38-6.18-3.93-6.18-6.95v-21.19l-18.39,18.21,4.14,65.79h9.38v-17.44c0-.78,2.11-3.19,2.81-3.19h20.44c.18-2.76.12-5.7-2.97-6.59-7.11-.79-14.96.5-21.98-.14-4.84-.44-4.84-6.72,0-7.16,5.63-.51,16.9-.5,22.53,0,6.85.61,10.55,7.49,9.55,13.89h7.12v-6.19c0-4.57-4.62-10.74-8.61-12.76-7.84-3.98-23.02-.34-31.91-1.83-4.02-.87-4.14-6.25-.08-7.25,14.31.91,31.97-4.25,42.47,8.36,2.01,2.42,5.26,8.54,5.26,11.61v8.06ZM66.75,125.25h-21v7.88h21v-7.88ZM59.62,140.25h-6.56l-7.31,119.62h21l-7.12-119.62ZM128.62,246.75h-37.5v13.12h36.94l.56-.56v-12.56Z"/>
  <path d="M195.19,259.87c2.52.57,3.33,5.54.09,6.84h-41.06c-2.25-1.42-2.37-3.31-1.29-5.6,3.11-6.55,9.88-13.93,12.52-20.48,2.03-5.04,2.47-11.63,4.62-16.75l18.27-13.98,2.73-1.05c7.47.39,15.88,2.84,23.22,3.04,3.76.1,9.77-3.11,12.67-2.57.52.1,1.06.49,1.54.73l11.29,17.21c2.45,1.51,7.3.92,9,3.38l5.67,18.33,14.04,12.21c2.34,4.17-1.28,7.54-5.38,5-4.87-3.02-9.95-9.17-14.7-12.67l-5.6-17.65c-1.57-.42-3.81-1.4-5.33-.83-4.29,1.61-9.44,6.06-13.87,7.89-4.12.95-10.98-2.92-14.74-2.39-.73.1-8.21,2.62-8.53,2.94-1.12,1.11-.99,5.39-3.49,6.82-1.93,1.11-4.63.32-5.14-1.92-.55-2.4,2.06-10.06,4.32-11.27,1.27-.68,11.88-4.14,13.07-4.18,3.13-.1,9.96,3.03,12.62,2.52l10.61-5.93-7.92-12.32-8.97,2.22-22.89-2.98-16.07,11.98c-1.96,4.72-2.38,10.58-4.27,15.23-2.19,5.4-7.37,10.66-9.45,16.24h32.44Z"/>
  <path d="M81.67,33.1c9.95-1.13,17.95,3.11,23.98,10.72,27.35-4.53,48.44,17.46,46.22,44.49-.28,3.41-2.17,14.62-7.68,10.69-3.07-2.19-.83-5.04-.3-7.8,4.26-21.97-11.13-42.42-34.21-40.59-2.46.19-5.26,1.69-7.51.79-1.77-.71-2.1-2.7-3.16-3.96-10.83-12.91-28.85-7.57-31.77,8.73-.34,1.89.35,3.62-1.06,5.32-2.01,2.43-6.58.22-9.36.02-4.34-.31-9.24.75-13.18,2.56-2.26,1.04-6.91,4.97-8.28,5.23-1.48.29-2.52-.11-3.49-1.21-2.82-3.21.74-5.67,3.12-7.42,7.29-5.34,16.07-7.21,25.03-6.08,1.89-10.65,10.62-20.24,21.65-21.49Z"/>
  <path d="M110.12,89.87c6.94-6.94,2.78-19.13-6.9-20.39-2.46-.32-5.13.77-7.24.11-2.55-.8-3.44-6.87-9.38-3.79-4.06,2.11-2.07,5.5-4.08,7.55-2.65,2.69-6.47.38-6.41-3,.18-9.76,10.98-15.47,19.52-10.9,1.07.57,3.21,2.62,3.63,2.74,1.84.54,4.91-.04,7.61.64,13.15,3.34,18.26,19.94,9.91,30.53-2.27,2.88-9.56,8.96-12.92,5.1-3.78-4.34,4.14-6.47,6.25-8.58Z"/>
  <path d="M50.17,77.92c.17-.1.28-.76.63-1.04,7.03-5.58,15.61-4.15,19.69,3.94,6.04-.03,11.92,2.51,15.08,7.8,1.7,2.85,4.18,10.11-.73,11.06s-4.05-4.92-5.78-7.54c-1.4-2.12-4.38-3.89-6.93-3.97-2.26-.08-3.77,1.46-6.16.18-2.25-1.21-1.45-3.59-2.77-5.48-1.61-2.29-4.75-2.52-6.93-.9-1.19.88-1.88,2.9-3.38,3.37-1.75.55-3.24-.28-5.03-.17-3.59.23-7.67,3.07-8.94,6.46-.98,2.6.08,6.92-3.2,7.68-6.81,1.57-4.91-7.55-3.29-11.16,2.27-5.08,8-9.4,13.54-10.09,1.02-.13,3.68.19,4.2-.12Z"/>
</svg>