<?xml version="1.0" encoding="UTF-8"?>
<svg id="Calque_1" data-name="Calque 1" xmlns="http://www.w3.org/2000/svg" viewBox="0 0 300 300">
  <defs>
    <style>
      .cls-1 {
        fill: #fff;
      }
    </style>
  </defs>
  <path d="M236.25,142.21c35.2,8.44,50.71,50.31,28.27,79.26-7.82,10.09-20.98,17.84-33.82,18.93-50.12,4.24-106.47-3.03-157.22-.3-55.93-10.34-66.59-84.92-15.48-110.01-3.52-76.12,96.56-99.86,128.98-31.41,30.48-22.58,68.83,10.56,49.28,43.52ZM135.68,149.3c1.8-6.9-7.21-9.81-12.73-10.13-28.6-1.62-30.25,50.84-1.03,49.62,5.33-.22,15.87-3.06,13.76-10.15-6.52,1.92-10.02,5.35-17.54,3.81-13.92-2.86-13.21-33.44-.76-36.72,8.22-2.17,11.26,1.3,18.31,3.56ZM158.8,139.46c-25.1,3.54-25.5,51.33,4.8,49.31,17.75-1.18,22.24-17.6,19.69-32.76-2.18-12.96-11.68-18.36-24.49-16.55ZM190.54,213.05h17.27v-3.03s-12.18,0-12.18,0c1.23-4.54,6.43-6.77,8.79-10.96,6.44-11.47-3.22-18.16-13.69-12.13l-.17,3.88c.39.55,8.55-6.93,11.68.04,3.67,8.17-15.35,18.49-11.69,22.22Z"/>
  <path class="cls-1" d="M158.8,139.46c12.81-1.81,22.31,3.6,24.49,16.55,2.55,15.16-1.95,31.58-19.69,32.76-30.29,2.02-29.9-45.77-4.8-49.31ZM161.84,144.5c-13.38.84-15.36,14.65-13.87,25.46,1.44,10.46,8.5,14.31,18.65,12.67,14.27-2.3,16.31-39.46-4.78-38.13Z"/>
  <path class="cls-1" d="M135.68,149.3c-7.05-2.27-10.08-5.73-18.31-3.56-12.44,3.28-13.15,33.85.76,36.72,7.52,1.55,11.02-1.89,17.54-3.81,2.11,7.09-8.43,9.92-13.76,10.15-29.22,1.22-27.57-51.24,1.03-49.62,5.51.31,14.53,3.23,12.73,10.13Z"/>
  <path class="cls-1" d="M190.54,213.05c-3.65-3.73,15.37-14.05,11.69-22.22-3.13-6.96-11.3.51-11.68-.04l.17-3.88c10.47-6.03,20.13.66,13.69,12.13-2.36,4.2-7.56,6.43-8.79,10.96h12.19s0,3.04,0,3.04h-17.27Z"/>
  <path d="M161.84,144.5c21.09-1.33,19.05,35.83,4.78,38.13-10.15,1.63-17.21-2.21-18.65-12.67-1.49-10.81.49-24.61,13.87-25.46Z"/>
</svg>