<?xml version="1.0" encoding="UTF-8"?>
<svg id="Calque_1" data-name="Calque 1" xmlns="http://www.w3.org/2000/svg" viewBox="0 0 300 300">
  <path d="M164.08,275h-28.9c-7.66-1.87-15.52-3.03-23.08-5.35-38.9-11.96-70.45-44.22-81.78-83.27l-5.13-24.25c.43-7.29-.59-15.18,0-22.39C34.51,24.96,186.44-15.45,252.46,80.68c51.88,75.55,3.71,185.83-88.38,194.32ZM144.31,55.13c-86.18,5.14-122.5,112.9-56.68,169.04,52.44,44.73,135.45,19.65,154.06-46.41,17.88-63.49-31.39-126.57-97.38-122.64Z"/>
  <path d="M160.35,66.04v17.72c21.52,2.28,42.83,19.71,41.01,42.91h-26.1c-.27-8.08-6.35-16.51-14.91-16.79v27.99c20.31,1.56,42.22,9.67,43.85,33.08,1.8,25.73-19.69,43.91-43.85,46.21v18.66h-25.17v-18.19c-5.09-2.44-10.38-3.25-15.55-5.89-15.18-7.74-27.21-23.72-27.32-41.22h27.03c.42,9.9,6.1,18.05,15.85,20.52v-30.78c-22.25-2.54-42.44-13.53-41.05-38.76,1.21-21.86,21.1-34.87,41.05-37.74v-17.72h25.17ZM135.18,109.89c-17.15,2.82-19.39,22.56,0,23.32v-23.32ZM161.28,164.93v26.12c21.47-2.72,23.49-25.34,0-26.12Z"/>
</svg>