<?xml version="1.0" encoding="UTF-8"?>
<svg id="Calque_1" data-name="Calque 1" xmlns="http://www.w3.org/2000/svg" viewBox="0 0 300 300">
  <defs>
    <style>
      .cls-1 {
        fill: #fff;
      }
    </style>
  </defs>
  <path d="M184.38,168.37l-20.31,11.68v40.48l21.73-12.21.16-39.53c.06-.66-1.16-.53-1.57-.41.17-.07.35-1.01.82-1.19l55.33,17.64.46,40.41,37.92,12.81v12.84h21.09v1.56H0v-1.56h14.06v-15.96l32.87-19.4.88-22.87,71.42-33.6c2.89-.5,4.66,1.95,7.03,2.99,12.37,5.46,24.51,11.33,36.76,17.05,7.29-3.37,13.95-7.86,21.35-10.73ZM119.53,250.88v-89.52l-68.75,33.86v55.66h68.75ZM200.78,192.5v-14.4l-8.59-2.72v13.62l8.59,3.5ZM217.19,182.38l-8.59-2.34v14.4c2.24,2.38,5.87,1.92,8.59,3.5v-15.57ZM235.16,187.83l-9.38-2.34v15.57l9.38,1.56v-14.79ZM185.94,250.88v-40.48l-40.62,22.57v17.9h40.62ZM47.66,250.88v-33.47l-32.03,19.07v14.4l6.69-.73c1.23-3.2-1-8.57,1.47-10.99l18.4-10.08v21.8h5.47Z"/>
  <rect class="cls-1" y="252.44" width="300" height=".78"/>
  <path d="M162.5,46.94c4.63.54,12.52,2.38,10.93,8.56-6.92-4.22-19.94-4.37-27.16-1.03-1.2.56-.71,1.86-1.35,1.81-2.44-6.14,5.92-8.72,10.55-9.35,1.69-.23,5.31-.2,7.03,0Z"/>
  <path d="M152.94,57.26c4.83-.66,19.43-.83,21.12,5.02l5.65,104.14c-.34,1.78-14.16,9.59-16.09,9.71-5.21.33-17.36-9.16-23.32-10.16l-1.23-1.88c.77-6.99.48-14.01.79-21.01.92-21.21,2.5-42.52,3.93-63.8.66-9.76-3.52-20.29,9.15-22.02Z"/>
  <path d="M97.13,65.06v2.33c3.77,0,6.8-3.09,10.73-3.7s18.18-.57,19.59,4.24l4.83,94.43c-3.39-1.31-10.01-5.87-13.46-5.32-6.01.97-15.52,8.76-21.87,10.26-2.21.52-3.2,0-5.29-.28.35,2.58.13,3.17-2.34,3.9l6.54-112.94c2.11-.49,2.49-.65,3.26-.82,2.91-.67-1.43.33,3.7-.83,5.86-1.33,19.62-3.18,23.79,1.14.96.99,1.01,3.13.98,4.47-6.26-2.6-12.07-3.86-18.93-2.91-2.79.39-5.9,1.82-7.99,2.55s-3.54,1.92-3.54,1.92"/>
  <path d="M81.14,115.55l3.16,57.74-23.35,11.42,3.27-67.96c1.28-4.24,13.57-3.27,16.93-1.2Z"/>
  <path d="M81.24,113.11c-4.61-3.09-12.22-3.52-16.79,0-2.28-7.67,20.71-5.1,16.79,0Z"/>
  <path class="cls-1" d="M119.53,250.88H50.78v-55.66l68.75-33.86v89.52ZM116.4,168.38l-16.8,8.55-1.15,18.69,16.8-8.55c1.07-6.21-.44-12.57,1.16-18.69ZM76.56,190.56c-.8,4.58.59,11.13,0,15.96l16.28-7.91.9-19.33c-4.25,3.14-16.22,5.81-17.18,11.29ZM71.09,190.95l-16.8,8.55-1.15,18.69,16.8-8.55,1.16-18.69Z"/>
  <path class="cls-1" d="M185.94,250.88h-40.62v-17.9l40.62-22.57v40.48ZM174.22,220.53v11.68c1.79-1.78,8.21-3.73,9.39-5.05,1.77-1.98.3-8.48.77-11.29l-10.15,4.67ZM171.09,222.87l-9.75,5.45-.39,10.11,9.76-4.67.39-10.89ZM147.66,246.21l9.77-5.43.37-10.91-9.75,5.45-.39,10.89Z"/>
  <path class="cls-1" d="M47.66,250.88h-5.47v-21.8l-18.4,10.08c-2.48,2.42-.24,7.79-1.47,10.99l-6.69.73v-14.4l32.03-19.07v33.47Z"/>
  <polygon class="cls-1" points="235.16 187.83 235.16 202.62 225.78 201.07 225.78 185.5 235.16 187.83"/>
  <path class="cls-1" d="M217.19,182.38v15.57c-2.73-1.59-6.36-1.13-8.59-3.5v-14.4l8.59,2.34Z"/>
  <polygon class="cls-1" points="200.78 192.5 192.19 189 192.19 175.38 200.78 178.1 200.78 192.5"/>
  <path d="M76.56,190.56c.96-5.47,12.93-8.14,17.18-11.29l-.9,19.33-16.28,7.91c.59-4.83-.8-11.38,0-15.96Z"/>
  <path d="M116.4,168.38c-1.59,6.12-.09,12.48-1.16,18.69l-16.8,8.55,1.15-18.69,16.8-8.55Z"/>
  <polygon points="71.09 190.95 69.93 209.64 53.13 218.19 54.29 199.5 71.09 190.95"/>
  <path d="M174.22,220.53l10.15-4.67c-.46,2.81,1.01,9.32-.77,11.29-1.18,1.32-7.59,3.27-9.39,5.05v-11.68Z"/>
  <polygon points="171.09 222.87 170.7 233.75 160.94 238.43 161.34 228.32 171.09 222.87"/>
  <polygon points="147.66 246.21 148.05 235.32 157.8 229.87 157.43 240.78 147.66 246.21"/>
  <path d="M182.81,173.82v13.62c-4.58,3.41-10.21,6.09-15.63,8.17v-14.79l15.63-7.01Z"/>
</svg>