<?xml version="1.0" encoding="UTF-8"?>
<svg id="Calque_1" data-name="Calque 1" xmlns="http://www.w3.org/2000/svg" viewBox="0 0 300 300">
  <defs>
    <style>
      .cls-1 {
        fill: #fff;
      }
    </style>
  </defs>
  <path d="M90.55,59.22l126.05,12.33c16,14.57,30.16,31.58,45.18,47.31.37,11.04.4,22.12.29,33.17-.16,16.18.82,37.16-.59,52.73-.11,1.19-.08,2.2-.92,3.18l-113.42,32.86c-33.85-9.28-70.14-13.86-103.82-23.17-2.23-.62-4.71-.66-5.58-3.2v-92.64s50.95-61.44,50.95-61.44l1.85-1.12ZM188.94,120.64l-40.95-47.73-46.77-4.99,47.37,54.77c13.37-.03,26.89-1.59,40.34-2.05ZM111.75,92.52l-20.18-23.42-18.42,21.96,38.59,1.46ZM181.17,76.29l-22.05-2.23,39.3,45.87,18.59-1.05-35.84-42.59ZM249.18,117.12l-35.1-37.77-21.62-2.06,34.52,40.7,22.21-.87ZM138.06,122.99c.26-1.01-.42-1.17-.87-1.76-5.44-7.09-12.78-13.77-18.44-20.79l-51.62-1.36-17.37,20.1,88.3,3.8ZM239.24,125.33v18.16l14.59-1.79c-.27-5.69.99-11.28.62-16.97l-15.21.59ZM231.05,125.92l-54.97,2.93v21.68l54.97-6.74v-17.87ZM63.8,127.68c-3.99-.12-8.02.15-12.01.02-2.19-.07-4.92-1.67-6.7.27v23.14l18.71,2.34v-25.78ZM143.33,130.61l-71.93-2.34v87.89l71.93,15.82v-101.37ZM167.89,129.43l-16.96,1.17v22.27l16.96-1.76v-21.68ZM239.24,206.19c4.85-1.07,10.22-2.05,14.62-4.39v-52.44l-14.62,1.76v55.08ZM231.05,152.29l-54.97,5.86v66.21l15.79-4.11c-10.02-7.39-11.44-15.46-6.53-26.75,6.45-14.84,11.75-6.86,20.27.97,2.81-2.27,8.58-11.96,11.75-12.29s3.88,1.9,5.22,4.09c4.71,7.7,5.28,15.49,2.62,24.03l5.85-1.17v-56.84ZM150.93,231.39l16.96-4.98v-67.68c-4.86,1.41-10.64.91-15.5,1.76-.66.11-1.09.3-1.46.88v70.02ZM63.8,161.08l-18.71-1.76v24.9c5.63,2.8,12.64,2.69,18.71,4.39v-27.54ZM63.8,196.23c-5.38.23-12.52-3.23-17.51-3.28-.7,0-.77.06-1.2.65v15.82l18.71,4.98v-18.16ZM214.68,210.88c1.72,1.87,4.59-8.67,4.63-9.75.1-2.81-1.42-5.66-1.72-8.41l-6.84,7.9c1.39,3.36,3.94,6.44,3.93,10.26ZM207.66,215.57c-.27-8.75-6.88-16.39-13.73-21.1-9.17,12.47.21,22.03,13.73,21.1Z"/>
  <path class="cls-1" d="M207.66,215.57c-13.53.94-22.9-8.63-13.73-21.1,6.85,4.7,13.46,12.35,13.73,21.1Z"/>
  <path class="cls-1" d="M214.68,210.88c.01-3.82-2.54-6.89-3.93-10.26l6.84-7.9c.3,2.75,1.82,5.6,1.72,8.41-.04,1.08-2.91,11.62-4.63,9.75Z"/>
  <path d="M107.65,161.66c2.37-4.65,7.81-8.31,12.86-9.68,9.09-2.46,9.6,1.79,8.78,9.97-1.23,12.21-15.08,22.99-27.02,19.47-8.05-2.38-14.74-8.4-16.66-16.71-5.15-22.32,14.08-12.59,22.04-3.05ZM102.97,173.38c-.53-6.25-4.22-11.96-10.52-13.47.81,6.4,4.55,11.17,10.52,13.47ZM121.69,159.91c-5.91,1.47-10.27,7.38-9.93,13.47,5.76-2.27,9.59-7.18,9.93-13.47Z"/>
  <path d="M106.5,198.57c.89.22.93-.14,1.41-.62,1.52-1.52,2.52-3.39,4.47-4.89,3.32-2.55,14.78-8.12,16.65-2.13,1.99,6.36-1.49,16.83-6.15,21.44-3.22,3.18-12.03,7.53-16.52,7.18-6.79-.53-16.16-6.96-19.1-13.14-1.83-3.85-5.01-17.27.95-18.29,4.9-.84,16.7,5.13,18.29,10.45ZM102.98,210.29c-.7-6.15-4.24-11.9-10.52-13.47.74,6.27,4.37,11.59,10.52,13.47ZM111.76,210.29c5.56-2.16,9.85-7.32,9.93-13.48-5.68,2-10.34,7.08-9.93,13.48Z"/>
  <path class="cls-1" d="M121.69,159.91c-.35,6.3-4.17,11.2-9.93,13.47-.33-6.09,4.03-12.01,9.93-13.47Z"/>
  <path class="cls-1" d="M102.97,173.38c-5.97-2.31-9.7-7.08-10.52-13.47,6.3,1.51,9.99,7.22,10.52,13.47Z"/>
  <path class="cls-1" d="M102.98,210.29c-6.15-1.88-9.78-7.2-10.52-13.47,6.28,1.57,9.82,7.32,10.52,13.47Z"/>
  <path class="cls-1" d="M111.76,210.29c-.42-6.39,4.25-11.48,9.93-13.48-.08,6.16-4.37,11.31-9.93,13.48Z"/>
</svg>