<?xml version="1.0" encoding="UTF-8"?>
<svg id="Calque_1" data-name="Calque 1" xmlns="http://www.w3.org/2000/svg" viewBox="0 0 300 300">
  <path d="M225.28,189.32l-32.26-51.8,49.71-32.72c2.25-.71,1.35.52,1.95,1.37,7.16,10.25,23.67,33.14,28,43.51,5.15,12.33.99,24.85-5.16,35.97-6.5,11.75-30.07,47.87-38.67,56.72-2.93,3.01-10.95,7.76-14.89,7.76h-33.98v25.04l-3.38-1.99-35.77-53.65,35.07-51.58,4.08-2.48v23.85h45.31ZM232.68,189.08c23.46,4.82,42.98-13.76,33-37.16-5.16-12.1-17.42-25.97-24.29-37.58l-38.86,25.67,30.15,49.08ZM172.82,195.29v-9.54s-23.8,33.99-23.8,33.99l22.6,34.58c1.84,1.64,1.17-1.2,1.2-2.38.08-2.98-.06-5.99,0-8.96h43.52c1.8,0,7.93-4.35,9.47-6.03,10.05-10.98,17.64-30.21,28.09-41.66h-81.08Z"/>
  <path d="M92.94,109.44l23.83,60.81-18.42-13.12-25.68,40.54h59.62v59.62h-57.83c-5.31,0-15.86-12.43-18.68-17.09-6.57-10.84-27.26-56.28-29.98-67.78-4.53-19.17,11.46-32.36,19.36-47.92l-18.99-15.05h66.77ZM88.77,116.59h-42.33c1.51,3.12,8.04,4.37,6.98,8.65-1.14,4.63-14.69,21.24-17.91,27.51-6,11.68-4.71,14.16-.36,25.79,4.96,13.27,12.13,25.93,16.66,39.39l44.72-72.74,5.93,4.77-13.7-33.38ZM125.13,203.63h-56.63c-9.15,11.88-14.31,24.63-4.69,38.08,3.59,5.02,12.88,10.81,19,10.81h42.33v-48.88Z"/>
  <path d="M245.55,48.64l-25.82,63.24-64.79-1.26,18.74-10.46,1.41-1.93-27.93-38.87-22.09,53.61-54.78-26.25c6.53-13.61,13.59-45.21,25.82-53.4,5.83-3.91,16.63-6.84,23.6-7.4,14.11-1.12,58.61-2.01,71.05.57,16.43,3.41,23.88,23.75,34.03,35.15l20.74-13.01ZM190.11,31.94h-55.44l50.04,68.57-5.92,4.15,36.97.62,15.48-39.95c-2.95.65-8.11,4.68-10.71,3.04-2.92-1.84-14.82-23.72-19.11-28.64-2.68-3.08-7.2-7.1-11.3-7.78ZM121.45,104.58l20.08-51.58c-9.34-20.07-33.13-26.15-47.91-7.86l-16.08,38.49,43.91,20.96Z"/>
</svg>