<?xml version="1.0" encoding="UTF-8"?>
<svg id="Calque_1" data-name="Calque 1" xmlns="http://www.w3.org/2000/svg" viewBox="0 0 300 300">
  <path d="M25,115.46c1.56-1.82,2.86-3.53,4.76-5.07,28.89-23.5,66.23-41.9,95.53-65.58,7.79-2.69,19.92-17.39,28-14.07l121.11,83.1c2.01,4.19-1.29,9.43-6.1,8.01l-119.04-79.25L34.11,121.29c-4.67,1.78-6.3.29-9.11-3.02v-2.81Z"/>
  <path d="M226.39,261.58V108.44c0-2.37,7.85-5.18,10.39-1.96v164.1s-7.08,2.29-7.08,2.29c-52.38-2.75-108.28,3.53-160.25,0-4.56-.31-8.66-.45-8.87-6.11l.88-160.03c2.09-3.3,10.38-.87,10.38,1.72v151.74l1.41,1.41h153.15Z"/>
  <path d="M131.78,247.06c-1.22,8.24-10.87,8.96-12.1-1.02-1.64-13.3-1.39-46.26-.11-59.9.31-3.37.84-6.37,3.8-8.38,17.7.33,38.23-2.1,55.76-.53,2.89.26,6.3.83,6.96,4.28l.02,66.5c.9,4.9-6.19,6.79-9.13,3.95-.16-.16-2.11-3.75-2.11-3.97v-59.48h-43.09v58.54Z"/>
  <path d="M80.56,117.61c.64-.77,2.28-1.35,3.22-1.9l130.02-.3c7.81,1.63,7.55,9.54,0,11.34H85.37c-4.07-.31-7.71-5.66-4.81-9.14Z"/>
  <path d="M199.22,36.78c-.42,5.03,2.09,13.5-4.63,14.59-3.54.57-6-1.36-6.54-4.82-.64-4.07-1.21-18.77,2.77-20.52h45.85c1.88,1.23,2.59,2.39,2.88,4.61,1.72,13.13-1.19,30.32-.28,43.89-1.19,6.23-11.01,2.82-11.01.18v-37.94h-29.04Z"/>
</svg>