<?xml version="1.0" encoding="UTF-8"?>
<svg id="Calque_1" data-name="Calque 1" xmlns="http://www.w3.org/2000/svg" viewBox="0 0 300 300">
  <defs>
    <style>
      .cls-1 {
        fill: none;
      }
    </style>
  </defs>
  <path d="M254.52,272.3c-2.32-.2-5.38-1.7-7.99-1.23l-1.19-78.5c-.21-.77-6.23-1.43-7.43-1.9s-3.4-2.79-3.98-2.79h-9.53v-2.46s7.99-.62,7.99-.62c1.04-.99-5.51-24.46-5.98-28.21-.09-.67-.68-2.12.44-1.98,2.52,10.05,5.77,19.91,6.79,30.31,2.75,3.62,7.76,3.44,11.65,5.42l-.61-85.64-10.44-.62-.52-5.12c.17-.76,3.32-3.51,3.9-3.51h15.67c-.75-14.15-2.99-28.15-5.72-42.02-1.46-7.39-4.05-15.23-5.19-22.53-.1-.66-.65-2.14.46-2,7.7,21.28,10.6,43.28,13.38,65.66.06.48-.48,1.22-.38,1.42,2,.35,4.1,3.46,5.46,4.07,1.43.64,4.19.63,6.12,1.25,10.83,3.51,21.56,7.68,31.35,13.55-1.46.35-3.5-.24-5.03-.5-5.6-.98-28.43-4.79-31.82-6.92-1.45-.91-2.55-3.01-4.1-3.91-.44-.07-2.2.98-2.48,1.36-.31.41-3.61,8.82-3.75,9.49-.86,4.19.4,8.8.5,12.78.51,20.39.37,42.11,1.8,62.28.12,1.71.1,4.31,1.87,4.91l-1.25.7,3.09,77.24c-1.01-.06-2.07.09-3.07,0Z"/>
  <path d="M195.52,155.22c-2.06-.18-4.08-.52-6.14-.62v-.61s14.13,0,14.13,0v-1.23c-.25-.29-.78.62-.92.62h-11.98l.36-3.77,10.7-1.17-1.85-48.67c3.97,16.07,3.65,32.98,4.4,49.5,3.09,1.4,1.66,3.4,2.06,4.13.36.67,9.4,8.6,11.07,10.43,3.15,3.48,5.92,7.47,8.9,11.09-1.15.27-1.46-.64-2.15-1.22-2.87-2.41-5.63-5.56-8.62-7.99-2.26-1.84-7.96-4.85-9.32-6.36-2.05-2.28-2.31-9.53-5.11-1.05-1.62-.15.34-3.4,0-3.69h-5.53s0,.61,0,.61c1.41.13,2.89-.09,4.31,0l2.47,109.33-7.39.35v-97.97l-10.76,12.94c-.46.1-.4-.6-.3-.91,1.5-4.68,9.43-12.76,11.25-17.57.65-1.72.32-4.31.42-6.17Z"/>
  <path d="M233.63,188.5c-1.67,3.57-2.59,6.16-2.49,10.2.47,18.02,1.98,36.2,2.51,54.17.15,4.98-.65,10.38.59,15.12l-6.15-.61v-64.7l-4.93,8.31,4.93-12.31v-9.55h-4.3s0-.62,0-.62h9.83Z"/>
  <polygon points="229.93 156.45 229.61 154.58 244.07 122.57 243.78 131.21 229.93 156.45"/>
  <rect class="cls-1" x="182.62" y="27.67" width="117.38" height="244.65"/>
  <path d="M73.76,269.94l4.75-148.43c-2.77,1.87-10.16.59-10.16-3.27,0-1.09,2.81-8.57,3.61-8.98,2.28-1.48,4.17,2.02,5.54,2,1.11-.01,3.92-1.52,5.17-1.97-13.81-8.39-23.36-20.81-34.78-31.91-13.24-12.87-27.94-24.07-41.36-36.64-1-.94-3.79-3.05-3.26-4.49,2.36.5,4.25,2.03,6.17,3.35,26.79,18.46,49.31,42.62,74.41,62.54,9,7.14,5.88,2.6,10.46-3.85,4.28-6.02,20.75-18.31,27.34-23.27.52-.39,3.71-2.58,3.85-2.4.36,2.56-1.59,4.37-2.98,6.24-6.12,8.21-14.78,16.94-21.69,24.76-3.31,3.75-6.85,5.64-6.9,11.61-.03,3.23,3.41,14.39,4.52,18.19,2.7,9.31,6.54,18.32,9.38,27.56,6.29,20.51,11.38,41.48,15.9,62.45-1.7.33-.96-.46-1.35-1.3-.65-1.4-1.15-2.88-1.64-4.35-8.93-26.77-15.04-54.36-24.96-81.1-1.76-4.74-5.01-14.94-7.49-18.72-.49-.75-.99-1.43-2.03-1.24-.88.64-.68,11.97-.63,14.03.34,13.99,1.86,28.27,2.43,42.28l1.17,96.89h-15.47Z"/>
  <rect class="cls-1" y="33.28" width="127.89" height="239.04"/>
</svg>