<?xml version="1.0" encoding="UTF-8"?>
<svg id="Calque_1" data-name="Calque 1" xmlns="http://www.w3.org/2000/svg" viewBox="0 0 300 300">
  <defs>
    <style>
      .cls-1 {
        fill: #fff;
      }
    </style>
  </defs>
  <path d="M16.09,228.72c6.72-2.04,7.37,7.73.63,6.6-3.51-.59-3.61-5.69-.63-6.6Z"/>
  <g>
    <path d="M263.19,145.33l-.76-4.5c-10.7,6.55-27.4,1.49-30.7-10.83.34-2.45,11.42-8.09,14.22-9.83.9-.56,1.96-.98,3.02-1.1l-2.62-3.74c-5.93,10.55-22.59,14.88-31.66,6.22l.28-3.94,18.7-32.24c2.05-3.2,5.63-.66,7.83,1.06,4.09,3.21,7.63,9.94,8.13,15.1.2,2.08-.77,6.63-.6,6.93.22.38,6.07,4.05,6.65,5.76,3.06,1.37,15.06-15.07,17.79,2.41.75,4.83.27,9.98-1.69,14.44-.67,1.53-3.04,4.07-3.18,5-.28,1.75,2.66,6.72,2.1,9.22,10.07.74,19.02-3.88,14.39,10.37-1.25,3.84-4.11,8.18-7.32,10.67-1.38,1.07-6.37,3.22-6.74,3.75-.68,1-2.04,8.31-1.12,9.36,3.81,4.37,15.64,3.93,8.21,13.49-5.27,6.78-14.13,8.51-22.27,8.06l-5.06,5.86c-1.87,3.77,14,13.49-1.05,17.64-5.62,1.55-10.58.89-15.95-1.33-1.58-.65-4.7-3.22-5.4-3.28-1.51-.14-5.79,2.35-7.88,2.31-2.39,1.78,1.57,13.8-2.91,15.06-8.85,2.49-20-6.24-22.69-14.48l-7.84-2.27c-3.28,0-5.26,11.04-9.74,11.72-9.72-2.4-14.56-14.78-13.04-24.09l-5.89-6.21c-1.88-.94-8.58,5.03-11,5.54-8.44,1.76-8.39-14.65-6.54-20.1.81-2.38,3.34-5.14,3.79-6.76.71-2.54-2.04-6.76-2.01-9.69-8.92-.96-17.69,3.8-14.54-9.1,1.16-4.73,3.98-9.4,7.93-12.3,1.37-1.01,5.78-2.74,6.29-3.44,1.23-1.67.46-5.76,2.66-7.83.48-.45,6.75-3.67,7.45-3.84,3.66-.92,11,6.18,14.95,7.19,1.94-4.27-2.69-11.83-2.28-14.6.29-1.98,2.94-3.02,4.73-2.54,6.75,1.82,6.72,25.45-.61,26.16-3.2.31-18.9-13.02-19.05-5.65,10.08.23,19.93,8.07,21.52,18.18.26,1.64.61,7.7-1.69,7.7h-19.83l.76,4.5c10.52-6.42,28.08-2.05,30.69,10.84-.41,2.87-13.99,9.63-17.23,10.92l2.64,2.98,6.09-5.86c6.57-4.81,13.68-5.49,21.22-2.78,1.86.67,4.91,1.7,5.08,3.93l-9.27,17.44c-.45,1.71,2.3,1.78,3.36,1.47.76-10.61,10.53-21.6,21.48-21.63,1.34,0,4.76,1.53,4.76,2.57v19.12l3.74-1.14c-3.72-7.99-3.17-16.99,2.26-23.96,1.41-1.81,5.76-6.03,7.96-6.22,4.9-.42,9.27,14.83,12.2,16.73,1.43.93,2.21-.81,3-1.55l-7.32-8.38c-4.46-4.38-3.9-23.39,2.52-24.26,3.43-.46,16.87,10.04,18.27,9.03l.76-3.75c-10.98.51-21.22-9.87-21.71-20.67-.06-1.32.34-4.84,1.89-4.84h19.83ZM223.54,118.32c14.05,3.9,25.06-13.99,14.58-24.73l-14.58,24.73ZM266.18,117.57l-24.68,14.62c10.97,10.47,28.14-.35,24.68-14.62ZM164.44,164.08c-3.91-15.55-25.64-15.65-29.18,0h29.18ZM278.15,152.08h-28.43c2.89,15.42,25.54,15.42,28.43,0ZM245.99,174.58c-2.47,15.1,13.87,25.14,25.42,14.62l-25.42-14.62ZM147.23,198.57l25.42-14.62c-11.64-10.25-28.02-.51-25.42,14.62ZM247.48,217.32l-14.59-24.73c-10.78,10.69-.03,29.1,14.59,24.73ZM184.46,197.27c-10.2,1.3-16.13,12.42-11.59,21.72,1.31,2.69,2.32,5.13,4.44,1.86,4.54-7.04,8.09-14.88,12.46-22.04.23-2.47-3.84-1.73-5.31-1.54ZM212.32,200.83c-15.06,4.32-14.72,24.58,0,29.25v-29.25Z"/>
    <path d="M218.08,72.06c3.08,2.84,3.19,7.14.62,10.29-5.28,6.47-10.28.79-15.91-1.34-15.87-6.01-31.59-5.11-46.34,3.44-12.36,7.17-16.64,17.67-33.51,18.91-24.91,1.83-29.15-16.16-48.84-23.1-12.66-4.46-25.93-4.23-38.34.96-5.95,2.48-13.52,10.65-19.42,5.19-8.89-8.21,6.53-15.66,12.41-18.23,21.69-9.47,46.09-7.38,65.59,6.03,8.54,5.87,13.42,14.44,24.95,14.57,11.66.14,16.06-7.44,24.27-13.5,18.62-13.76,42.65-16.6,64.25-8.32,2.29.88,8.68,3.64,10.26,5.09Z"/>
    <path d="M54.33,92.28c22.63-1.01,27.89,15.57,45.78,22.66,13.36,5.3,29.11,5.04,42.17-1.2,15.73-7.52,20.81-22.18,41.96-21.67,7.43.18,29.35,6.53,19.14,16.92-5.51,5.61-11.51-1.37-18.37-1.9-14.12-1.1-21.03,11.49-32.31,17.85-23.03,12.99-52.39,10.93-73.48-4.79-7.26-5.42-11.15-12.25-21.39-13.05-14.79-1.16-19.69,12.4-32.13,15.78-5.55,1.51-11.7.49-11.7-6.41,0-7.44,7.67-7.19,12.29-10.25,10.4-6.91,13.1-13.26,28.05-13.92Z"/>
    <path d="M85.87,216.57c3.71-12.1,8.58-45.52,26.35-44.09,21.33,1.71,18.09,46.06,32.38,56.09,5.33,3.74,6.42-1.59,9.87-.2,7,2.81-1.12,9.29-6.81,9.14-16.82-.46-21.42-32.09-25.14-44.17-2.15,1.26-1.46,5.99-3.72,7.13-2.16,1.1-4.62.15-5.44-2.1-.9-2.45,2.54-11.09,5.42-12.15-6.75-11.3-12.87-5.41-17.32,3.61-6.35,12.86-6.58,36.44-19.37,45.08-13.96,9.43-23.58-9.02-27.08-20-1.14-3.59-4.8-21.46-6.54-22.69-1.13-.81-3.65-.27-4.54-1.63-1.91-2.88.68-4.84.61-5.89-.07-1.12-4.68-4.76-6.22-4.86-5.24-.34-10.51,10.57-12.11,14.8-1.45,3.84-2.91,18.27-9.21,12.6-2.14-1.93-.23-6.82.43-9.4,2.78-10.84,11.42-30.13,25.58-24.15,2.67,1.13,4.2,3.71,5.47,4.26,1.72.74,4.04-.11,5.3,1.44,1.69,2.09-.31,4.37.05,6.64.29,1.82,3.04,6.99,3.82,9.74,1.8,6.39,2.88,13.34,5.22,19.52,2.67,7.07,10.13,21.69,17.68,10.52.56-2.19-4.53-7.83-1.1-10.79,3.22-2.58,6.08,1.83,6.42,1.57Z"/>
    <path d="M203.9,135.77c26.36-3.47,35.46,34.83,10.31,43.33-31.4,10.61-41.86-39.18-10.31-43.33ZM212.09,152.31c-7.55-7.02-17.99,5.49-9.88,11.78,7.63,5.92,16.65-5.48,9.88-11.78Z"/>
    <path d="M15.93,150.58c-3.56-1-2.68-6.95,3.7-7.54,32.54-2.97,69.53,2.31,102.55.02,7.06.82,5.02,7.52,2.23,7.52H15.93Z"/>
    <path d="M15.93,165.58c-3.78-1.06-1.57-8.21,2.98-7.52,31.09,2.16,65.92-2.81,96.56-.02,8.12.74,5.6,7.54,3.7,7.54H15.93Z"/>
    <path d="M172.11,117.75c.96-.86,3.95-.61,5,.23,1.33,1.06,2.6,6.1,4.15,5.6,2.16-.69,3.19-11.85,8.59-9.38,5.2,2.38-1.04,12.35-3.73,14.99-1.05,1.04-5.2,3.85-6.47,3.96-3.15.28-10.89-12.41-7.54-15.41Z"/>
    <path d="M32.21,221.27c2.34-2.26,6.94-1.09,6.54,3.1-.74,7.79-12.86,13.76-11.22,4.61.08-.44,4.35-7.4,4.68-7.71Z"/>
    <path d="M43.06,212.64c-9.7,4.78-6.16-14-.94-14,6.2,0,2.4,10.64.94,14Z"/>
    <path d="M63.24,173.95c3.22-.45,10.24,6.12,9.82,9.07-.78,2.34-2.48,4-4.91,3.01-.44-.18-7.12-5.77-7.34-6.2-1.18-2.39-.46-5.48,2.42-5.88Z"/>
    <path d="M74.44,192.7c5.9-1.82,8.7,12.7,4.96,14.01-3.17,1.11-4.2-.2-5.32-2.67-1.2-2.65-3.64-10.1.36-11.34Z"/>
    <path d="M105.11,234.36c-4.07,4.95-17.51,4.41-11.23-3.4,3.54,0,7.7-4.28,10.71-2.77,2.02,1.2,1.94,4.45.52,6.17Z"/>
    <path d="M113.37,221.63c-2.14,2.05-6.37.38-6.51-2.39-.13-2.67,3.99-14.48,8.64-10.23,2.56,1.75-.77,11.31-2.13,12.62Z"/>
    <path d="M131.33,175.52c2.66,3.06-1.82,8.58-5.47,5.87-4.88-3.62,2.28-9.55,5.47-5.87Z"/>
    <path d="M194.55,117.01c3.12-3.08,9.01.83,5.87,4.77-3.06,3.84-9.3-1.38-5.87-4.77Z"/>
    <path class="cls-1" d="M164.44,164.08h-29.18c3.53-15.65,25.26-15.55,29.18,0Z"/>
    <path class="cls-1" d="M278.15,152.08c-2.89,15.42-25.54,15.42-28.43,0h28.43Z"/>
    <path class="cls-1" d="M184.46,197.27c1.47-.19,5.54-.93,5.31,1.54-4.37,7.16-7.92,15-12.46,22.04-2.11,3.27-3.12.84-4.44-1.86-4.54-9.3,1.39-20.42,11.59-21.72Z"/>
    <path class="cls-1" d="M147.23,198.57c-2.6-15.14,13.77-24.87,25.42-14.62l-25.42,14.62Z"/>
    <path class="cls-1" d="M223.54,118.32l14.58-24.73c10.49,10.75-.52,28.64-14.58,24.73Z"/>
    <path class="cls-1" d="M266.18,117.57c3.46,14.27-13.71,25.09-24.68,14.62l24.68-14.62Z"/>
    <path class="cls-1" d="M245.99,174.58l25.42,14.62c-11.55,10.52-27.89.48-25.42-14.62Z"/>
    <path class="cls-1" d="M247.48,217.32c-14.62,4.37-25.37-14.04-14.59-24.73l14.59,24.73Z"/>
    <path class="cls-1" d="M212.32,200.83v29.25c-14.72-4.67-15.06-24.93,0-29.25Z"/>
    <path class="cls-1" d="M212.09,152.31c6.77,6.29-2.26,17.7-9.88,11.78-8.1-6.29,2.33-18.8,9.88-11.78Z"/>
  </g>
</svg>