<?xml version="1.0" encoding="UTF-8"?>
<svg id="Calque_1" data-name="Calque 1" xmlns="http://www.w3.org/2000/svg" viewBox="0 0 300 300">
  <defs>
    <style>
      .cls-1 {
        fill: #fff;
      }
    </style>
  </defs>
  <path class="cls-1" d="M25,167.02V25h250v250H25v-104.09c4.72,3.79,11.8,1.18,17.46,1.99,9.16,53.38,62.41,89.17,115.36,85.59,30.21-2.04,63.09-20.35,80.03-45.45.95-1.4,5.16-6.82,4.07-8.08l-28.57-10.58c-36.64,52.14-120.04,40.09-137.77-21.53h17.51c1.25-4.27,2.84-4.27,0-8.27-3.37-4.73-23.36-24.6-28.18-28.23-4.35-3.27-5.47-3.24-9.77,0-10.17,7.66-20.36,21.94-30.14,30.66ZM225.39,133.95h-18c-1.24,0-5.31,5.52-2.48,7.35,10.13,7.42,18.7,22.04,28.24,29.15,9.03,6.73,11.39-.72,16.53-5.88,3.26-3.28,24.28-23.33,24.33-25.24.2-7.85-12.6-4.9-17.48-5.38-9.8-71.9-87.26-113.5-153.39-82.85-21.6,10.01-40.3,28.52-50.9,49.77l29.58,10.79c34.76-62.4,129.32-47.55,143.57,22.3Z"/>
  <path d="M25,167.02c9.77-8.72,19.96-23,30.14-30.66,4.3-3.24,5.42-3.27,9.77,0,4.82,3.63,24.81,23.5,28.18,28.23,2.85,3.99,1.26,4,0,8.27h-17.51c17.73,61.62,101.13,73.67,137.77,21.53l28.57,10.58c1.09,1.26-3.12,6.68-4.07,8.08-16.95,25.1-49.83,43.41-80.03,45.45-52.94,3.58-106.2-32.21-115.36-85.59-5.66-.81-12.75,1.79-17.46-1.99v-3.89Z"/>
  <path d="M225.39,133.95c-14.25-69.85-108.81-84.7-143.57-22.3l-29.58-10.79c10.6-21.25,29.3-39.76,50.9-49.77,66.13-30.66,143.59,10.95,153.39,82.85,4.88.49,17.69-2.46,17.48,5.38-.05,1.91-21.06,21.96-24.33,25.24-5.14,5.16-7.5,12.61-16.53,5.88-9.54-7.11-18.11-21.73-28.24-29.15-2.83-1.83,1.25-7.35,2.48-7.35h18Z"/>
</svg>