<?xml version="1.0" encoding="UTF-8"?>
<svg id="Calque_1" data-name="Calque 1" xmlns="http://www.w3.org/2000/svg" viewBox="0 0 300 300">
  <defs>
    <style>
      .cls-1 {
        fill: #fff;
      }
    </style>
  </defs>
  <path d="M48.75,110.31c-.08-.28-3.05-2.69-4.01-4.12-5.61-8.38-5.55-25.69-1.73-34.75,3.54-8.4,10.98-10.16,15.35-1.38,5.54,11.13,4.94,32.61-5.25,40.86l.09,43.67,1.47,1.03,33.44,2.5v-32.19c0-.14-1.61-1.01-2.09-1.73-3.8-5.73-4.47-15.18-3.38-21.86,2.11-12.89,12.24-15.76,15.68-1.62,2.21,9.1,1.15,19.29-5.2,26.47l.07,31.15.94.93,21.08,3.01,36.02-12.3c.37-.4-3.57-6.83-4.06-8.13-8.95-23.93,12.37-48.01,37.19-42.19,16.06,3.77,26.72,20.34,23.75,36.57,20.11-4.07,40.65-7.17,61.25-6.88l-.09,4.29c-.78,1.26-12.21.56-14.59.72-31.15,2.11-66.58,9.78-96.57,18.43-10.95,3.16-22.15,6.47-32.5,11.25,10.94,3.42,21.46-.82,32.38-2.62,33.86-5.59,72.41-10.29,106.71-8.35,1.58.09,3.08.31,4.59.72l.06,4.93c-.74-.3-1.32-.58-2.16-.64-15.15-1.12-32.9-.37-48.14.65-23.58,1.57-47.09,5.36-70.32,9.38l18.46,4.38c2.15.23,4.04-.66,6.19-.66,31.95-.11,64.14.45,95.61,6.21l.04,5.08c-27.18-5.34-55.15-6.2-82.8-6.25l36.1,10.45c15.74,5.23,31.61,10.24,46.76,17.02l-1.99,4.35c-32.73-13.51-66.96-23.53-101.49-31.52-44.4-10.27-90.52-17.63-136.26-17.18l.1-3.97.84-1.03h18.44v-44.69ZM52.39,69.49c-5.04-2.95-7.35,13.64-7.42,16.42-.15,5.84,4.13,29.99,9.89,14.26,2.79-7.61,2.61-19.33-.36-26.86-.21-.54-1.92-3.71-2.11-3.82ZM90.01,121.87c1.24.88,2.71-2.83,2.97-3.57,1.74-4.98,1.87-11.98.48-17.07-1.81-6.68-3.85-6.29-5.53.15-1.8,6.94-1.03,14.06,2.07,20.5ZM156.36,148.03l46.18-10.81c6.97-24.43-21.99-43.63-42.21-27.84-12.21,9.53-13.42,26.73-3.97,38.64Z"/>
  <path d="M270,230.63l-1.02,5.05c-9.15-1.44-18.3-3.21-27.49-4.35-61.36-7.6-132.96-8.59-194.19.02-5.27.74-12,2.74-16.99,3.03-1.66.1-1.09-3.72-.64-4.4,1.01-1.55,29.18-5.17,33.15-5.59,44.54-4.78,92.83-4.72,137.49-1.87,23.36,1.49,46.61,4.55,69.69,8.12Z"/>
  <path d="M268.75,217.51l-1.58,5c-31.48-9.45-64.34-15.57-96.95-19.92-26.3-3.51-53.33-6.21-79.89-6.99-19.85-.58-40.33-.18-60.05,1.74l-.82-.87-.13-3.59c.16-.56,2.85-.95,3.48-1,37.52-3.18,78.8-.91,116.24,3.13,40.39,4.35,80.61,11.74,119.7,22.5Z"/>
  <polygon points="143.44 93.76 150.58 101.02 147.73 104.33 140.01 97.19 143.44 93.76"/>
  <polygon points="210.31 93.76 213.74 97.19 206.02 104.33 203.17 101.02 210.31 93.76"/>
  <polygon points="224.34 115.65 225.03 119.07 224.39 120.32 215.02 122.48 214.37 117.81 224.34 115.65"/>
  <path d="M168.69,92.45c-6.59,3.01-5.31-4.94-6.82-9.32,1.24.45,3.96-1.79,4.69-.64.51.81,2.54,9.47,2.13,9.95Z"/>
  <polygon points="191.86 83.15 189.34 93.1 185.02 92.48 187.19 82.48 191.86 83.15"/>
  <polygon points="138.74 138.12 139.31 143.06 129.38 145.63 128.77 140.64 138.74 138.12"/>
  <path d="M139.36,117.51l-.98,5.03c-4.22-1.49-12.45-.56-8.65-6.96l9.63,1.93Z"/>
  <path class="cls-1" d="M156.36,148.03c-9.45-11.91-8.24-29.11,3.97-38.64,20.22-15.79,49.19,3.4,42.21,27.84l-46.18,10.81Z"/>
  <path class="cls-1" d="M52.39,69.49c.19.11,1.9,3.28,2.11,3.82,2.96,7.53,3.14,19.25.36,26.86-5.76,15.73-10.03-8.42-9.89-14.26.07-2.78,2.38-19.37,7.42-16.42Z"/>
  <path class="cls-1" d="M90.01,121.87c-3.1-6.43-3.88-13.56-2.07-20.5,1.67-6.44,3.71-6.83,5.53-.15,1.38,5.09,1.26,12.09-.48,17.07-.26.74-1.73,4.45-2.97,3.57Z"/>
</svg>