<?xml version="1.0" encoding="UTF-8"?>
<svg id="Calque_1" data-name="Calque 1" xmlns="http://www.w3.org/2000/svg" viewBox="0 0 300 300">
  <defs>
    <style>
      .cls-1 {
        fill: #fff;
      }
    </style>
  </defs>
  <path d="M70.66,103.12c-.81,18.45-2.53,36.97-6.95,54.91-3.73,15.14-9.44,31.16-14.94,45.77-2.67,7.09-8.92,25.53-12.64,30.83-3.71,5.29-12.38,3.98-13.32-2.19-.84-5.49,7.16-20.96,9.5-27.14,8.53-22.59,17.65-47.17,21.04-71.16,1.71-12.11,1.84-24.48,3.12-36.63-.36-2.11-5.01-3.44-7.01-5.03-11.99-9.48-5.58-29.3,9.57-30.65,24.51-2.19,52.24,1.7,77.09.03,19.07,2.98,20.68,28.22,2.57,34.21.15,17.45,1.91,34.97,5.29,52.04l5.59-7.5c19.12-24.77,70.28-26.64,94.14-9.6,34.25,24.46,22.36,63.29,24.45,99.62,7.66-1.9,13.74,5.21,4.14,7.51-19.82-1.76-43.53,2.29-62.87,0-7.05-.84-3.95-7.51-2.23-7.51h46.01v-58.12c0-11.75-12.34-27.03-22.43-32.26-13.23-6.87-43.26-6.94-56.63-.49-10.64,5.13-21.42,18.61-22.61,30.58-.69,6.98,7.65,26.67,10.58,34.23,3.32,8.57,7.23,16.91,10.2,25.62,1.2,1.74,12.06-2.15,11.32,4.55-.53,4.79-16.66,3.93-20.26,3.08-2.96-.71-4.47-2.87-5.84-5.39-5.47-10.01-11.1-27.01-15.07-38.15-6.41-17.98-12.85-36.85-14.95-55.89-4.28-.74-18.67,2.29-19.48-3.41-.56-1.11,1.07-4.08,1.9-4.08h16.08l-2.24-42h-39.28c-2.37,0-2.37-6.75,0-6.75h50.12c1.7,0,2.72-5.25.75-5.25H59.07l-1.18,1.88.79,2.26c1.86,1.87,7.69.19,10.51,3.91,2.61,3.44.49,7.67,2.18,11.12,2.45,1.71,20.74-1.01,24.99.45,2.91,1,2.07,6.63-.62,6.63h-25.06Z"/>
  <path d="M43.92,236.43c-3.8-3.75,6.03-10.16,8.02-12.94-6.64-5.89-.76-11.02,5.53-5.67l4.95-4.83c-2.08-2.92-10-7.3-6.79-11.32,4.21-5.27,10.26,6,12.31,5.64,2.8-1.71,6.67-8.22,9.81-8.26,4.03-.05,7.46,6.15,10.6,8.26,1.83.32,6.98-7.83,9.67-8.22,3.74-.55,7.48,6.35,10.53,8.22,1.85.32,6.68-7.83,10.44-8.2s7.32,6.21,10.5,8.2c4.1-1.86,6.46-9.15,11.13-3.7,1.99,4.04-3.53,6.62-5.61,9.38l4.95,4.8c5.08-3.82,10.24,1.09,5.63,5.71,2.51,3.42,9.27,6.61,5.12,11.25-4.92,2.96-8.55-5.96-10.75-5.58-3,1.97-6.7,8.44-10.52,8.19s-8.56-8.52-10.42-8.19c-2.76,1.68-6.73,8.27-9.83,8.27-3.03,0-7.82-7.18-10.47-9.07-2.65,1.89-7.45,9.06-10.47,9.07-3.42,0-8.39-8.62-10.37-8.27-3.13,2.11-6.57,8.3-10.6,8.26-3.47-.04-8.35-8.61-10.35-8.26-3.24,2.15-8.66,11.56-13.01,7.26ZM77.87,208.17l-4.95,4.82,5.49,4.82,4.95-4.82-5.49-4.82ZM98.72,208.13l-4.85,4.86,4.85,4.86,4.85-4.86-4.85-4.86ZM119.02,208.17l-4.95,4.82,5.49,4.82,4.95-4.82-5.49-4.82ZM67.4,218.67l-4.95,4.82,5.49,4.82,4.95-4.82-5.49-4.82ZM88.35,218.67l-4.95,4.82,4.85,4.86,4.81-4.96c.17-1-3.76-4.89-4.71-4.72ZM108.55,218.67l-4.16,4.72,4.81,4.96,4.85-4.86-5.49-4.82ZM129.5,218.67l-4.95,4.82,5.49,4.82,4.95-4.82-5.49-4.82Z"/>
  <path d="M209.07,177.37h19.83c7.23,0,2.81,13.78,1.03,17.53-2.09,4.41-11.26,16.53-16.79,12.52l-11.53-18.79c-1.66,3.23-8.95,18.05-11.24,19.11-6.33,2.91-15.47-10.4-17.34-15.59-1.3-3.61-4.49-14.77,2.01-14.77h19.83c-.97-5.66-11.19-15.93-9.59-21.22.95-3.15,13.56-5.84,16.7-5.84,3.82,0,17.01,2.6,17.42,7.3.29,3.32-9.53,15.49-10.31,19.76ZM210.56,159.37c-5.65-1.7-11.7-2.32-17.2.36l8.6,13.86,8.6-14.23ZM195.6,184.87h-16.46c-1.02,3,5.59,14.42,7.87,14.08l8.59-14.08ZM225.53,184.87h-17.21l8.63,14.25c2.55.62,8.58-11.57,8.57-14.25Z"/>
  <path d="M76.83,131.8c1.61-1.59,16.37-2.74,13.93,3.79-1.59,5.65-20.19,2.4-13.93-3.79Z"/>
  <path class="cls-1" d="M225.53,184.87c0,2.67-6.03,14.86-8.57,14.25l-8.63-14.25h17.21Z"/>
  <path class="cls-1" d="M210.56,159.37l-8.6,14.23-8.6-13.86c5.5-2.68,11.55-2.06,17.2-.36Z"/>
  <path class="cls-1" d="M195.6,184.87l-8.59,14.08c-2.28.34-8.88-11.07-7.87-14.08h16.46Z"/>
</svg>