<?xml version="1.0" encoding="UTF-8"?><svg id="Calque_1" xmlns="http://www.w3.org/2000/svg" viewBox="0 0 200 200"><path d="M101.3,99.2c-22.8,8.5-48.3-9.8-39-34.5,4.5-12.1,14.9-11.8,16.8-14.7s1.4-5.8,2.5-8c9.7-19.4,38-19.2,46.9.5.9,1.9,1.7,7.2,2,7.5s4,1.1,5.5,2c21.7,13.1,12.9,47.2-12.2,49.2-5.4.4-9.3-1.2-14.5-2v20c9.1-.5,20,.1,23.5,10,12.5-3.2,28.9-30.2,42-18.1,6.7,6.2,3.4,14.5-1.5,20.6-19,23.4-50.6,42.8-81.5,40.5-20.4-1.6-38.9-14.8-58.9-12.9s-7,3.5-11.6.9v-39.5c0-3.6,11.6-2.2,14.3-2.7,3.9-.8,10.8-5.7,15.8-7.2,12.8-4.1,22.4-3.8,34.3,2.7,5.5,3,7.8,7.6,15.7,5.8v-20ZM101.3,82.7c-.3-6.3,0-12.7,0-19s5.3-2.8,6.7-1.2l1.3,2.2v17.5c5.1-3.2,10.5-14.4,15.9-5.3,1.2,4.7-10.1,9.8-11.9,14.3,17.1,7.6,32-9.5,24.5-26s-13.2-7.1-15-10-1.1-6.4-2-9c-5.4-14.8-29.1-12.6-33,1.9s.2,8-1.9,10.1c-2.7,2.6-10.8-1.2-15.4,8.6-7.3,15.4,9.7,29.7,24.8,25.1-.5-3.6-2.5-4.3-4.5-5.7-3.9-2.6-9.7-8.1-4.2-12.4,5.1-2.2,10.2,7.7,14.3,10.3.6-.2.5-1,.5-1.5ZM29.3,151.2c21.8-4.4,41.1,10.9,62.6,12.9s53.7-15.1,72.4-34.3c2.5-2.6,8.7-9.3,4.6-12.6l-3-1c-6.8,4.5-12.6,10.1-19.2,14.9s-23.4,16.2-25.8,16.2h-40c-.7,0-3.1-3.2-2.5-4.4,0-1,2.1-3.6,2.5-3.6h36c3.1,0,9.5-3.2,8.4-7.3-2.1-7.4-27.8-3.5-34.2-4.9s-10-7.3-15-9c-19.6-6.7-28.6,8.8-46.7,8.2v25Z"/></svg>