<?xml version="1.0" encoding="UTF-8"?><svg id="Calque_1" xmlns="http://www.w3.org/2000/svg" viewBox="0 0 200 200"><path d="M142.5,32.8c4.8,1.3.7,15.4.5,19.5-.9,17,2.8,36.2,7.5,52.5s14.3,34.3,14.5,53c8.6-2.5,13.7,7.1,3.6,8.1-43.2,4.2-93.2-3.3-137.1,0-10.7-1-4.5-10.9,4.6-8.1,0-18.7,9.1-35.7,14.3-53.2s8.7-35,7.7-54.3c-.1-2.9-4.1-17.5.5-17.5h84ZM136,41.8h-71c3,22.1-.5,42.7-6.7,63.8-5.1,17.3-14,34-15.3,52.2h115c-1.2-17.1-9.4-32.2-14.3-48.2s-10.6-44.8-7.7-67.8Z"/><path d="M96.8,77.1c5.3-.7,19.5,1.5,19.2,8.1s-6.5,14.3-8,15.2-5.3-1.6-7.5-1.6-7.3,2.4-8.5,1.7l-7.9-16.9c.7-2.8,9.7-6,12.6-6.4Z"/><path d="M110.7,119.5c1.9-2.6,2.4-6,3.9-8.8,3.6.8,18.1-1.6,19.2,1.7.8,8.4-2.3,17.3-8.8,22.9s-7.2,5.8-9.5,3.5-7.9-13.2-8.1-14c-1.1-4.6,2-3.6,3.3-5.3Z"/><path d="M87,110.8c-.7,5.2,2.9,9.3,7.1,11.6l-9.5,17.2c-12.2-3.3-20-16.7-16.5-28.8h19Z"/><path d="M96.3,106.1c6-4.9,13.7,4.3,8.3,9.7-5.9,6-14.6-4.5-8.3-9.7Z"/></svg>