<?xml version="1.0" encoding="UTF-8"?><svg id="Calque_1" xmlns="http://www.w3.org/2000/svg" viewBox="0 0 200 200"><path d="M104.1,95.4c2.7.6,1.7-.8,2.5-2,9-13.6,13.9-20.7,32-22,16.4-1.2,14.2,5.3,9.2,18.2-5.4,14-13.2,19.2-27.5,22.5s-13.2.2-15.3,3.7-1.5,15.2-.9,18.1.3,2,1.6,2.4c12.6-.4,25.2,4.7,35.7,11.3s20.5,13.5,14.4,19.6l-111.8-.2c-6.3-6.5,13.9-19.6,18.7-22.3,10-5.6,21.8-8.9,33.3-9.2-.8-4.4,1.4-17.6-.9-20.6-2-2.6-10-1-13.6-1.4-12.7-1.4-24.2-8.8-29.3-20.7-1.6-3.9-5.9-16.6-3.3-19.9,9.6-3.7,25.8-.4,34.1,6.1s6.9,9.4,10.7,14.3,0,1.8,2.3,1.3c-.3-3.6.6-7.8-.2-11.3-.9-4.1-8.1-10.5-10-16-3.4-9.7-1.6-17.3,3.8-25.6,7.6-11.8,13.1-11.6,20.2.6,6.8,11.6,5.3,22.3-1,33.7-1.2,2.3-4,3.4-4.6,6.4s.2,9.1-.2,13.3ZM98.5,72.4c11.9-7,8.9-22.8,1-31-8.9,10.5-8.5,23.9-1,31ZM91.1,105.4c-5.9-16.1-15.6-26.8-34-26,1.3,17.8,16.7,28.3,34,26ZM142.1,79.4c-17.4,0-27.5,9.9-32,26,17.4-.7,29.1-8.1,32-26ZM56.1,161.4h87c.6-2.3-.6-1.7-1.3-2.3-23.1-20-64.8-21.4-85.7,2.3Z"/></svg>