<?xml version="1.0" encoding="UTF-8"?><svg id="Calque_1" xmlns="http://www.w3.org/2000/svg" viewBox="0 0 200 200"><path d="M129.5,59.4c.7-10.3,13.3-15.8,22.1-11.6,12.3,5.9,6.5,23,8.1,33.9,4.1,5.5,13.9,8.2,10.2,16.8l-10.4.9c0,4.8-1,12,.2,16.3s8.6,8.6,9.7,17.3c1.8,14.4-6.7,19.2-16.8,26-3.7,2.5-2.5,4.5-9.7,5.3-29.4,3.5-64.9-2.4-94.9.2-1.7,0-4.3-.3-5.5-1.5-2.7-2.8,0-56.5-1-64.5l-11.1-.4c-1.6-1.1-1.3-5.6,0-7.1l65.8-56.2h7c0,0,26.3,24.8,26.3,24.8ZM50.5,92.9v62.5h21v-50.5l1.5-1.5h41l1.5,1.5v50.5h16c-.6-1.8-3.4-2.1-4.9-3.6-11.1-11-6.9-27.9,4.5-36.9l-1.6-44.1-30.5-27.2-53.5,46.7c1.6-.2,4.6,1.1,5,2.5ZM148.9,58.6c0-3.3-10.2-3.5-10.2.5s.5,26,.6,32.8.2,4.6.2,6.9c.1,6.7-.2,13.4,0,20,0,4-5.2,4.6-7.4,7.6-14.3,19.9,20.8,34.1,27.5,14.5s-7.8-15.6-9-22.1-.9-12.8-1.1-16.9c-.3-6.2-.5-40.9-.5-43.4ZM106.5,111.4h-26v44h26v-44Z"/><path d="M145.1,127.7c9.9-.2,9.5,14.3-.2,14.6s-11.1-14.4.2-14.6Z"/></svg>