<?xml version="1.0" encoding="UTF-8"?><svg id="Calque_1" xmlns="http://www.w3.org/2000/svg" viewBox="0 0 200 200"><path d="M175.1,42v93.9c-7.6.9-12.7-5-20.5-4.9-7.8.1-16.1,7.1-22,7.1s-12.8-5.8-19-6.1c-7.8-.4-11.3,4.6-17,5.1s-13.3-5.3-22-5.1c-6.8.1-12.8,5-18,5.1-9,0-20.1-11.4-30.5-9V43.5l1.5-1.5h147.5ZM167.1,51H36.6c-.3,0-.8-1.3-1.5-1v70l14,5,4-58.5c0-1.1,1.9-3.5,2.5-3.5h93.5l2,58c6-2.6,10.4.7,16,2V51ZM83.1,73h-21.5s-4.5,54-4.5,54c7.5-2.8,14.9-5.7,23-3l3-51ZM111.1,73h-17.5c-.3,0-.8-1.2-1.5-.6l-3,52.9,6.5,2.7,15.6-6.5v-48.5ZM141.1,73h-21l-1,50.3c4.7,3.9,21.4,8.4,23,.2l-1-50.5Z"/><path d="M28.8,140.1c9.4-1.8,20.1,8.5,27.9,8.5,3.6,0,10.3-5,14.9-5.6,11.3-1.6,16.6,5.6,24.1,5.6s8.1-4.4,11.3-5.2c12.8-3.3,18.3,6.3,27.5,5.6s11.5-8,22-7.1c5.8.5,23.4,7.4,17.1,15.1-3.2,2.7-11.8-4.6-15.5-5.6-10-2.6-13.1,6.6-22.5,6.6-8.9,0-14.9-7.2-24-6.1s-8.7,6.2-16,6.1c-7.3-.1-15.6-6.4-21-6.2-4.1.2-9,4.7-13.5,5.6-12.5,2.6-22.3-8.7-34.7-9.5-2.7-3-1.9-7.1,2.3-7.9Z"/></svg>