<?xml version="1.0" encoding="UTF-8"?><svg id="Calque_1" xmlns="http://www.w3.org/2000/svg" viewBox="0 0 200 200"><path d="M81.2,97.1l2,1c3.2-2,7.4-9.7,10.8-10.3s5.4,1.5,5.2,4.3-16.6,15.3-17.7,19.2-.6,17.9.7,18.9c6.5,3.2,12.1-4.9,16-6.1s6.2-.1,9.3-.7c10.8-1.9,15.3-10.7,13.5-21s-4.5-7.2-4.8-11.3,2.5-7,3-11.1c.9-6.7-1.6-13.7-7.4-17.4s-10.1-1.2-12.5-3.5-1.7-5-2.8-7.2c-8.8-16.3-32.9-16.5-40.7.7s-1.7,9-3,11c-2,3.1-13.7,1.2-15.4,11.6s2.1,11.7,2.1,17-3.6,7-4.1,12c-1,10.1,5.7,20.4,16.5,20.6s9.8-3.5,12.3,1.6c1,4-3.6,5.6-6.6,6.1-20.4,3.1-34.5-14-29.6-33.6s2.9-5.2,3.1-6.8-2.8-8.1-2.8-11.9c-.1-6.3,3.5-14.7,8.6-18.5s9-3.8,9.3-4.2.9-4.9,1.7-6.8c9.7-22.6,40.1-26,53.9-5.9,1.1,1.6,3.4,7.5,3.8,7.7.9.5,3.4.1,4.9.6,12.4,4,18.1,14.3,17,27.1s-2.6,7.5-2,10.9,2.5,4.3,3.3,6.8c4.6,14.9-2.9,31.1-19.1,33.6s-5.4.9-14,5-9.9,1.4-14.2,3.8v19l1.5,1.5h54.5l-2.1-8.9c-4.1-1.7-18.3,3.1-19.8-1.8l.8-4.7,19.1-1.6c-2.8-13.2-2.8-25.8,8.5-35s28.7-14.2,29.4-2.5c.8,11.7-12.1,30.6-23.2,34.7s-7,.2-7.7,2.4,2.6,14.9,5.4,17.4h23c3.4,0,2.3,8,0,8H49.7c-.7,0-3.1-3.2-2.5-4.4,0-1,2.1-3.6,2.5-3.6h23.5v-38.3c-3.5-3.5-12.9-11.5-15-15.1-2.3-3.9-.2-8.7,4.3-7.4s9,10.8,10.2,10.8c2.5.1.5-2.4.5-2.5v-33c0-2.5,8-3.6,8-1v23ZM142.2,133.5c11.6.3,21-14.4,22-25-13,2.1-25.1,10.2-22,25Z"/></svg>