<?xml version="1.0" encoding="UTF-8"?><svg id="Calque_1" xmlns="http://www.w3.org/2000/svg" viewBox="0 0 200 200"><path d="M128.7,43.1c15.1-1.2,24.5,5.1,25.9,20.6s1.5,46-.1,59.9c-.8,6.9-4.4,12.2-10.4,15.6l-.4,1.5,19.4,22.6c1.3,13.6-11.3,5.2-14.9-2.1l-96.3-.7c-3.1,7.6-18.4,16.7-14.3,2.2l18.9-23.1c-3.9-5.5-8-8.4-8.9-15.8-1.6-14-1.5-49.9,0-63.9,1.3-12.1,12.5-18.1,23.9-16.5.4-7.6,3.7-12.1,11.5-12.9s30.9-.9,36.5.4,7.9,7,9.1,12.4ZM120.6,43.2c-.4-5.6-5-5.7-9.4-6s-27.9-1-30.6,2.5c-1,1.2-1.1,2.1-.9,3.6h41ZM64.4,51.4c-4.2.7-7.5,3.8-7.8,8.2,1.8,20.2-2.3,44.3,0,64,.8,6.4,4.4,8.9,10.5,9.5,21.8,2.1,46.9-1.7,69,0,5.6-.8,9-4.9,9.5-10.5,1.8-19.7-1.5-42,0-62-.5-6-6-8.9-11.5-9.5-21.7-2.3-47.6,1.5-69.7.2ZM139.6,150.1c-3.8-4-4.4-8.5-10.4-9.1-18.9-1.8-40.8,1.5-60,0l-8.5,9h78.9Z"/><path d="M70.4,62.4h61.5c5.5,1.6,6.9,27.9-3.8,26.8l-57.5-.5c-7.1-2.2-7.3-24.7-.2-26.3Z"/><path d="M132.3,107.5c7,7.7-3.7,19.2-11.7,12.2-9.5-8.1,4.2-20.4,11.7-12.2Z"/><path d="M73.4,105.3c12.2-2.7,14.8,15.2,3.5,16.6-10.9,1.4-12.5-14.6-3.5-16.6Z"/></svg>