<?xml version="1.0" encoding="UTF-8"?><svg id="Calque_1" xmlns="http://www.w3.org/2000/svg" viewBox="0 0 200 200"><path d="M96.1,104c-1.3-4.7-9.1-3-12.4-3.6-11.7-2-22.7-8.6-26.8-20.2-1-2.9-3.9-13.3-.2-14.5,9.5-.9,19.7.3,27.4,6.3,5.1,4,7.5,10.1,12,14.5,1.9-9.4-6.4-15-7.7-23.7s1.4-24.1,13.3-28.2c10,5.3,12,18.8,10.2,29.2-1.3,7.8-9.3,12.6-7.8,20.7,8.3-10.6,16.2-18.3,30.5-19,12-.6,10.9,4.9,7.3,14.4-4.6,12-15.2,19.2-27.6,21.4s-7.8-.9-10.2,1.8v28.5c6.3-8.3,9.9-14.5,20.5-18,4.2-1.4,21.9-5.4,24-1,6.1,12.6-14.7,31.2-27.1,31.9-4.4.3-10.7-2.8-13.9-1-5.1,2.8-3.2,9.3-3.5,14.1h43.5c.6,0,3.1,1.8,3.4,2.7.7,1.4,0,5.3-1.4,5.3H50.1c-1.4-2.4-.8-8,2.5-8h43.5l-1-12.5c-7.3-3-15.6-.6-23.2-1.8-8.2-1.2-16.1-8-19.6-15.4-8.8-18.4-.1-19.4,16.1-16.1,15.2,3,18,9.7,25.5,21.4s-.1,1.8,2.2,1.3c-1.4-7.9,1.9-23.6,0-30.5ZM101.1,68.5c1.5-3.8,4-8.2,3.9-12.4s-2.9-13.7-5.9-11.6c-3.8,6.9-4.8,15.9-.3,22.7s-.1,1.8,2.2,1.3ZM89.1,92.5c-3.7-11.9-13.6-19.3-26-20,2.3,12,13.5,21.2,26,20ZM136.1,73.5c-14.1-.1-21.5,8.1-27,20,12.8.3,23.8-7.5,27-20ZM58.1,118.5c0,7.9,8.7,16.3,16.4,17,9,.9,14.5-.3,6.5-8.5-5.6-5.8-15.3-7.6-23-8.5ZM141.1,118.5c-7.9-.2-19.2,2.7-24.5,9s-2.5,8.9,6,8c8.6-.9,16.6-8.6,18.5-17Z"/></svg>