<?xml version="1.0" encoding="UTF-8"?><svg id="Calque_1" xmlns="http://www.w3.org/2000/svg" viewBox="0 0 200 200"><path d="M145,94.6h21.5c.2,0,3.2,2,3.6,2.4l.4,60.6c-.9,1.7-2.3,1.8-4,2-4.2.5-21.1.6-24.8-.3-7.6-1.7-3.9-8.8-.2-8.8h21.5v-47h-16.5c-1.7,0-9.5-4.2-9.5-6.5v-51.5h-27v31.5c0,.2-1.5,1.8-2,2-1.6.8-28.3,1-30.3.4-3.6-1.2-2.6-8.8-2.7-11.8h-11.4c-1.8.3,1.3,9.6-2.6,11.5s-17.5-2.1-23-.5v72h18.5c3.4,0,6.1,7.4-.2,8.8s-20.5.8-23.8.2-2.5-1.3-3-3l.2-81.9c2.9-9.4,18.2-2.4,25.3-4.2.3-3-1.2-8.9,2-10.5s22.5-1,24.3-.3c3.2,1.1,3.4,8.2,1.7,10.8h18v-30.5c0-.2,2.3-2.5,2.5-2.5h40l1.5,1.5v55.5Z"/><path d="M127.2,129.4l7.8,3.3-4,12.9c-11.5-4.4-15.9,2.1-12,13l-9.5,3.8c-2.7-1.3-4.1-7.7-6.9-7.8-6.5-.1-7.3,2.5-9.8,7.8l-9.7-3c1-6.2,1.5-8.7-3.1-13.4l-10,2.6-3.9-11.4c8.7-5.5,9.1-12.7-2.1-14.7l3.9-11.5,1.5-.4c10.5,5.9,13-4.4,9.6-12.9l10.4-4.2c2.9,5.1,4.2,8.6,10.8,6s3-7.6,5.2-8.9l10.1,4.9c.9,1.4-5.2,9.1,2.5,12.5s5.9-1.6,8.5-1.5,5.5,7.9,7.2,10.5c-4.2,3.9-8.6,5.2-6.5,12.3ZM98.7,109.9c-4.9.1-9.5,2.5-12.7,6.1-15.4,17.5,9.7,39.7,25.5,24.5,11.8-11.3,2.7-30.9-12.8-30.6Z"/></svg>