<?xml version="1.0" encoding="UTF-8"?><svg id="Calque_1" xmlns="http://www.w3.org/2000/svg" viewBox="0 0 200 200"><path d="M166.6,107.6c2.4.6,1.6-.4,2.2-1.3,2.2-3.2,4.8-9.4,9.2-8.7s4.1,4.3,2.4,7.4-13.9,17.5-14.8,18.2c-2.2,1.8-4.3,2.2-6.7.5s-13.2-19.8-13.4-21.7c-.4-3.2,1.8-5.9,5-5s5,6.7,6.7,9.3,0,1.8,2.2,1.3c-.9-5.9,0-11.9-1.3-18.2C146.3,23.7,55.1,15.9,31.4,76.9c-27.1,69.8,65.5,120.3,110.2,65.2s6-13.1,11.3-11.4-3.5,15.2-5.8,17.9c-24.7,29.6-72.3,33.1-102,9C5.2,125.1,11.5,62.5,55.3,36.8c51.8-30.4,118.7,11,111.3,70.8Z"/><path d="M71.6,127.6c-1.7,3.8-.3,18.8-6.1,17.6-9-3.7,0-18-1.1-22.8s-6-7.9-7.3-10.7c-15.8-33.6,15.5-57.9,47-58.1s13,1.2,14.9,2.2c6.4,3.6,7.1,25.6,6.7,32.4-2.1,29.4-24.9,47.8-54,39.5ZM107.6,62.6c-28.4-1.5-60.5,19.7-39.5,50l16.5-25.5,23-24.5ZM116.6,67.6c-1.7-.4-2,.7-3,1.5-5.2,4-15.5,14.8-20,20-7.4,8.6-13.3,18.7-18,29,0,3.6,10,3.7,12.6,3.5,13.5-.9,28.5-14.8,28.5-28.5v-25.5Z"/></svg>