<?xml version="1.0" encoding="UTF-8"?><svg id="Calque_1" xmlns="http://www.w3.org/2000/svg" viewBox="0 0 200 200"><path d="M75.6,158.4c-2.3-2.1,0-9.5-.4-10.1s-9-4.3-12-8c-7.2-9-4-26.7,2.2-35.7,3.5-5,14.4-17.6,20.7-11.2,5.2,9.3,13.7,16,14.6,27.4.9,12.3-5.2,23.5-16.9,27.7l-.2,9.8h37.5c1.9,0,7-11.1,12.1-7.1,5.5,4.4-7.7,16.5-13.2,16-24.1-1.5-51.2,2.3-75,.1-18.6-1.7-23.3-20.8-16.9-36,4.4-10.4,37.5-61.7,37.5-65.5v-16c0-3.2,9-3.2,9,0v17l-39.5,69.5c-2.3,5.6-2.1,14.1,2.4,18.5s5.2,3.5,5.5,3.5h32.5ZM83.6,138.4c1.1,1.2,5.2-3.7,5.8-4.7,8.3-13-2.5-23.1-9.3-33.3-10.8,8.6-20,29-5.5,38,0-4.7-1.2-26.2,7.8-22.3s-.1,17.9,1.3,22.3Z"/><path d="M133.6,89.4l-12.9-1.1c-.6-3-.7-6.5,2.8-7.4,7.1.7,14.4.7,21.6.6s9.3-2.4,9.4,3.4c.2,6.3-8.1,4.4-12,4.5-.3,5.8.4,11.7,0,17.5-.8,12.6-2.3,20.4-8.6,31.4s-9.4,14.7-10.1,15.1c-6,3.7-8.5-2.2-5.1-8.4,3.8-6.8,14.8-18.9,14.8-27.2v-28.5Z"/><path d="M93.6,65.9c1.9,8.5,23,34.5,27.9,46.1s3.2,6.2,1.2,9.7c-1.2,1.5-3.1,1.8-4.8,1-2.7-1.2-10.8-18-13.1-22s-20.2-30.9-20.2-32.8v-18c0-3.2,9-3.2,9,0s-.8,12.6,0,16Z"/><path d="M58.1,40.4c-2.2-.7-2.9-8.1,2-8.5l40.9.7,1.5,1.5c.6,2.3.7,6.4-2.4,6.4h-42Z"/><path d="M168.3,78.6c7-1.1,8.8,10.9,1.7,11.9-8.7,1.2-9.3-10.7-1.7-11.9Z"/><path d="M151.3,61.6c10.4-3.2,11.7,14.2,0,10.6-4.5-1.4-4.6-9.2,0-10.6Z"/><path d="M136.4,71.2c-4.3,4.3-14.8-1.3-9.2-7.7,5.7-6.5,14.3,2.7,9.2,7.7Z"/><path d="M154.3,98.6c6.7-1,7.2,9.1,1.7,9.9-6.8.9-7.6-9-1.7-9.9Z"/></svg>