<?xml version="1.0" encoding="UTF-8"?><svg id="Calque_1" xmlns="http://www.w3.org/2000/svg" viewBox="0 0 200 200"><path d="M71.2,62.6c.7,0,2.1-1.6,3.5-1l4,54,46-25.6,2,1.1v24.5l42.5-25.1c.8,0,2.5,1,2.5,1.6v81.5c2.7,0,7.1-.8,8.5,2v4s-4,2-4,2l-154.6-.5-1.8-3.3c-.5-6.1,6.7-3.2,8.9-4.7l8.9-110.6c11-.5,22.6.7,33.5,0ZM67.2,72.6h-21.5l-8,101c12.5.6,24.6-1.6,37,0l-7.5-101ZM82.7,173.6h81v-70l-40.7,23.8c-2,1.3-5.3-1.8-5.3-3.3v-19c0-.4,2.6-1.8-.5-1.5l-37.4,21.6,2.8,48.3Z"/><path d="M52.9,52.5c-2.5-12.9,10.4-33,24.8-27.3s7.1,5.5,9.5,5.4,12.6-9.8,17.7-11.3c11.7-3.4,25.5,2.3,27.6,15.1s-6.6,17.4-16,16-6.5-2.9-8.1-2.6c-3.4.7-6.5,7.4-15.1,7.8-7.2.4-11.1-3.4-15-3.6s-7.4,2.3-11,2.6c-4.9.4-10.1.2-14.4-2.2Z"/><path d="M116.7,157.6h-18.5c-2.5-1.9-2-15.6-.6-16.6,5.8-.2,14.2-1.9,19.1,1.1v15.5Z"/><polygon points="131.3 140.8 148.7 141.1 149.2 156.7 130.6 157.2 130.1 141.6 131.3 140.8"/></svg>