<?xml version="1.0" encoding="UTF-8"?><svg id="Calque_1" xmlns="http://www.w3.org/2000/svg" viewBox="0 0 200 200"><path d="M131.9,75.5l5.1,42.9c1.1,1,20.5-.6,24.4.1s3.5,1.7,3.5,2.5v50.5c6.4-2.8,10.9,2.4,6.5,8H28.4l-1.5-1.5v-43c11.8-10.2,27.3-16.4,40.7-24.4,7.7-1.1,1.8,14,3.3,17.9l14-5.5,5-47.5h42ZM133.9,170.5l-9.1-84.4c-.3-1.3-1.2-1.4-2.4-1.6-6.5-1.2-16.5.8-23.4.1l-9.1,85.9h44ZM34.9,139v31.5h46l4-38c-1.4-1.3-16.6,8.2-20.4,5.9-3-1-1.2-10.3-1.6-13.4s.4-2-1.5-1.5-21.8,11.6-23.9,13.1-1.9,1.4-2.7,2.3ZM155.9,127.5h-18l5.1,42.9h12.9c0,0,0-42.9,0-42.9Z"/><path d="M126.8,45.6c12,26.9-39.9,28.9-33.2,2.1,1.4-5.8,6.5-9.3,8.5-14.5s1.8-12.4,3.3-12.7c7.7,2.3,13.8,12,11.8,19.8s-9.1,16.7-.9,14.1c1.9-.6,4.9-11.2,10.5-8.8Z"/><polygon points="65.9 161.5 46.9 161.5 47.8 150.9 64.9 150.9 65.9 161.5"/></svg>